<?xml version="1.0" encoding="utf-8" standalone="no"?>
<!DOCTYPE svg PUBLIC "-//W3C//DTD SVG 1.1//EN"
  "http://www.w3.org/Graphics/SVG/1.1/DTD/svg11.dtd">
<!-- Created with matplotlib (https://matplotlib.org/) -->
<svg height="345.6pt" version="1.1" viewBox="0 0 460.8 345.6" width="460.8pt" xmlns="http://www.w3.org/2000/svg" xmlns:xlink="http://www.w3.org/1999/xlink">
 <metadata>
  <rdf:RDF xmlns:cc="http://creativecommons.org/ns#" xmlns:dc="http://purl.org/dc/elements/1.1/" xmlns:rdf="http://www.w3.org/1999/02/22-rdf-syntax-ns#">
   <cc:Work>
    <dc:type rdf:resource="http://purl.org/dc/dcmitype/StillImage"/>
    <dc:date>2021-01-18T15:58:49.601008</dc:date>
    <dc:format>image/svg+xml</dc:format>
    <dc:creator>
     <cc:Agent>
      <dc:title>Matplotlib v3.3.3, https://matplotlib.org/</dc:title>
     </cc:Agent>
    </dc:creator>
   </cc:Work>
  </rdf:RDF>
 </metadata>
 <defs>
  <style type="text/css">*{stroke-linecap:butt;stroke-linejoin:round;}</style>
 </defs>
 <g id="figure_1">
  <g id="patch_1">
   <path d="M 0 345.6 
L 460.8 345.6 
L 460.8 0 
L 0 0 
z
" style="fill:#ffffff;"/>
  </g>
  <g id="axes_1">
   <g id="patch_2">
    <path d="M 57.6 307.584 
L 219.927273 307.584 
L 219.927273 41.472 
L 57.6 41.472 
z
" style="fill:#ffffff;"/>
   </g>
   <g id="matplotlib.axis_1">
    <g id="xtick_1">
     <g id="line2d_1">
      <defs>
       <path d="M 0 0 
L 0 3.5 
" id="m15e8822730" style="stroke:#000000;stroke-width:0.8;"/>
      </defs>
      <g>
       <use style="stroke:#000000;stroke-width:0.8;" x="82.339718" xlink:href="#m15e8822730" y="307.584"/>
      </g>
     </g>
     <g id="text_1">
      <!-- 5 -->
      <g transform="translate(79.407687 322.57775)scale(0.1 -0.1)">
       <defs>
        <path d="M 51.46875 23.34375 
Q 51.46875 12.25 44.109375 5.46875 
Q 36.765625 -1.3125 24.359375 -1.3125 
Q 13.71875 -1.3125 8.5 1.859375 
L 8.5 11.625 
Q 16.15625 6.640625 24.125 6.640625 
Q 32.03125 6.640625 36.890625 11 
Q 41.75 15.375 41.75 22.609375 
Q 41.75 29.828125 36.6875 33.859375 
Q 31.640625 37.890625 22.40625 37.890625 
Q 15.28125 37.890625 9.578125 37.25 
L 12.359375 75.640625 
L 47.703125 75.640625 
L 47.703125 67.234375 
L 20.40625 67.234375 
L 18.84375 45.796875 
L 25.734375 46.09375 
Q 37.75 46.09375 44.609375 40.109375 
Q 51.46875 34.125 51.46875 23.34375 
z
" id="MicrosoftYaHei-53"/>
       </defs>
       <use xlink:href="#MicrosoftYaHei-53"/>
      </g>
     </g>
    </g>
    <g id="xtick_2">
     <g id="line2d_2">
      <g>
       <use style="stroke:#000000;stroke-width:0.8;" x="125.742732" xlink:href="#m15e8822730" y="307.584"/>
      </g>
     </g>
     <g id="text_2">
      <!-- 10 -->
      <g transform="translate(119.87867 322.57775)scale(0.1 -0.1)">
       <defs>
        <path d="M 27.828125 0 
L 27.828125 64.703125 
Q 25.59375 62.453125 20.234375 59.671875 
Q 14.890625 56.890625 10.359375 55.765625 
L 10.359375 65.140625 
Q 16.359375 66.796875 23.1875 70.4375 
Q 30.03125 74.078125 33.6875 77.296875 
L 37.3125 77.296875 
L 37.3125 0 
z
" id="MicrosoftYaHei-49"/>
        <path d="M 4.4375 36.328125 
Q 4.4375 56.34375 11.078125 66.625 
Q 17.71875 76.90625 30.328125 76.90625 
Q 54.34375 76.90625 54.34375 38.140625 
Q 54.34375 19 47.578125 8.859375 
Q 40.828125 -1.265625 28.609375 -1.265625 
Q 17.09375 -1.265625 10.765625 8.34375 
Q 4.4375 17.96875 4.4375 36.328125 
z
M 14.203125 36.765625 
Q 14.203125 6.640625 29.5 6.640625 
Q 44.53125 6.640625 44.53125 37.25 
Q 44.53125 68.953125 29.78125 68.953125 
Q 14.203125 68.953125 14.203125 36.765625 
z
" id="MicrosoftYaHei-48"/>
       </defs>
       <use xlink:href="#MicrosoftYaHei-49"/>
       <use x="58.642578" xlink:href="#MicrosoftYaHei-48"/>
      </g>
     </g>
    </g>
    <g id="xtick_3">
     <g id="line2d_3">
      <g>
       <use style="stroke:#000000;stroke-width:0.8;" x="169.145746" xlink:href="#m15e8822730" y="307.584"/>
      </g>
     </g>
     <g id="text_3">
      <!-- 15 -->
      <g transform="translate(163.281684 322.57775)scale(0.1 -0.1)">
       <use xlink:href="#MicrosoftYaHei-49"/>
       <use x="58.642578" xlink:href="#MicrosoftYaHei-53"/>
      </g>
     </g>
    </g>
    <g id="xtick_4">
     <g id="line2d_4">
      <g>
       <use style="stroke:#000000;stroke-width:0.8;" x="212.54876" xlink:href="#m15e8822730" y="307.584"/>
      </g>
     </g>
     <g id="text_4">
      <!-- 20 -->
      <g transform="translate(206.684698 322.57775)scale(0.1 -0.1)">
       <defs>
        <path d="M 41.65625 55.8125 
Q 41.65625 61.921875 37.796875 65.40625 
Q 33.9375 68.890625 27.296875 68.890625 
Q 22.609375 68.890625 17.8125 66.5 
Q 13.03125 64.109375 8.890625 59.671875 
L 8.890625 68.953125 
Q 12.59375 72.796875 17.296875 74.84375 
Q 22.015625 76.90625 28.375 76.90625 
Q 38.625 76.90625 44.875 71.40625 
Q 51.125 65.921875 51.125 56.546875 
Q 51.125 48.1875 47.28125 42.078125 
Q 43.453125 35.984375 34.1875 29.59375 
Q 24.703125 23.046875 21.5 20.21875 
Q 18.3125 17.390625 17.03125 14.796875 
Q 15.765625 12.203125 15.765625 8.5 
L 53.375 8.5 
L 53.375 0 
L 5.8125 0 
L 5.8125 3.765625 
Q 5.8125 10.296875 7.59375 14.859375 
Q 9.375 19.4375 13.46875 23.75 
Q 17.578125 28.078125 26.265625 34.125 
Q 35.15625 40.375 38.40625 45.09375 
Q 41.65625 49.8125 41.65625 55.8125 
z
" id="MicrosoftYaHei-50"/>
       </defs>
       <use xlink:href="#MicrosoftYaHei-50"/>
       <use x="58.642578" xlink:href="#MicrosoftYaHei-48"/>
      </g>
     </g>
    </g>
   </g>
   <g id="matplotlib.axis_2">
    <g id="ytick_1">
     <g id="line2d_5">
      <defs>
       <path d="M 0 0 
L -3.5 0 
" id="m9571a99bd0" style="stroke:#000000;stroke-width:0.8;"/>
      </defs>
      <g>
       <use style="stroke:#000000;stroke-width:0.8;" x="57.6" xlink:href="#m9571a99bd0" y="302.574545"/>
      </g>
     </g>
     <g id="text_5">
      <!-- 55 -->
      <g transform="translate(38.871875 306.57142)scale(0.1 -0.1)">
       <use xlink:href="#MicrosoftYaHei-53"/>
       <use x="58.642578" xlink:href="#MicrosoftYaHei-53"/>
      </g>
     </g>
    </g>
    <g id="ytick_2">
     <g id="line2d_6">
      <g>
       <use style="stroke:#000000;stroke-width:0.8;" x="57.6" xlink:href="#m9571a99bd0" y="271.377455"/>
      </g>
     </g>
     <g id="text_6">
      <!-- 60 -->
      <g transform="translate(38.871875 275.37433)scale(0.1 -0.1)">
       <defs>
        <path d="M 49.703125 65.921875 
Q 43.796875 68.953125 37.359375 68.953125 
Q 27.546875 68.953125 21.578125 60.40625 
Q 15.625 51.859375 15.53125 37.0625 
L 15.765625 37.0625 
Q 21.140625 47.46875 32.90625 47.46875 
Q 42.71875 47.46875 48.578125 41.0625 
Q 54.4375 34.671875 54.4375 24.078125 
Q 54.4375 12.984375 47.671875 5.859375 
Q 40.921875 -1.265625 30.421875 -1.265625 
Q 18.890625 -1.265625 12.328125 7.734375 
Q 5.765625 16.75 5.765625 33.296875 
Q 5.765625 53.328125 14.375 65.109375 
Q 23 76.90625 37.0625 76.90625 
Q 45.125 76.90625 49.703125 74.703125 
z
M 16.109375 24.75 
Q 16.109375 17.28125 20.09375 11.953125 
Q 24.078125 6.640625 30.671875 6.640625 
Q 36.921875 6.640625 40.828125 11.234375 
Q 44.734375 15.828125 44.734375 23.046875 
Q 44.734375 30.859375 41.046875 35.203125 
Q 37.359375 39.546875 30.5625 39.546875 
Q 24.125 39.546875 20.109375 35.15625 
Q 16.109375 30.765625 16.109375 24.75 
z
" id="MicrosoftYaHei-54"/>
       </defs>
       <use xlink:href="#MicrosoftYaHei-54"/>
       <use x="58.642578" xlink:href="#MicrosoftYaHei-48"/>
      </g>
     </g>
    </g>
    <g id="ytick_3">
     <g id="line2d_7">
      <g>
       <use style="stroke:#000000;stroke-width:0.8;" x="57.6" xlink:href="#m9571a99bd0" y="240.180364"/>
      </g>
     </g>
     <g id="text_7">
      <!-- 65 -->
      <g transform="translate(38.871875 244.177239)scale(0.1 -0.1)">
       <use xlink:href="#MicrosoftYaHei-54"/>
       <use x="58.642578" xlink:href="#MicrosoftYaHei-53"/>
      </g>
     </g>
    </g>
    <g id="ytick_4">
     <g id="line2d_8">
      <g>
       <use style="stroke:#000000;stroke-width:0.8;" x="57.6" xlink:href="#m9571a99bd0" y="208.983273"/>
      </g>
     </g>
     <g id="text_8">
      <!-- 70 -->
      <g transform="translate(38.871875 212.980148)scale(0.1 -0.1)">
       <defs>
        <path d="M 53.46875 69.734375 
Q 41.546875 48.921875 34.734375 31.21875 
Q 27.9375 13.53125 26.3125 0 
L 16.359375 0 
Q 18.171875 13.328125 24.90625 30.421875 
Q 31.640625 47.515625 42.921875 67.1875 
L 5.421875 67.1875 
L 5.421875 75.640625 
L 53.46875 75.640625 
z
" id="MicrosoftYaHei-55"/>
       </defs>
       <use xlink:href="#MicrosoftYaHei-55"/>
       <use x="58.642578" xlink:href="#MicrosoftYaHei-48"/>
      </g>
     </g>
    </g>
    <g id="ytick_5">
     <g id="line2d_9">
      <g>
       <use style="stroke:#000000;stroke-width:0.8;" x="57.6" xlink:href="#m9571a99bd0" y="177.786182"/>
      </g>
     </g>
     <g id="text_9">
      <!-- 75 -->
      <g transform="translate(38.871875 181.783057)scale(0.1 -0.1)">
       <use xlink:href="#MicrosoftYaHei-55"/>
       <use x="58.642578" xlink:href="#MicrosoftYaHei-53"/>
      </g>
     </g>
    </g>
    <g id="ytick_6">
     <g id="line2d_10">
      <g>
       <use style="stroke:#000000;stroke-width:0.8;" x="57.6" xlink:href="#m9571a99bd0" y="146.589091"/>
      </g>
     </g>
     <g id="text_10">
      <!-- 80 -->
      <g transform="translate(38.871875 150.585966)scale(0.1 -0.1)">
       <defs>
        <path d="M 4.78125 21.09375 
Q 4.78125 27.640625 8.6875 33.15625 
Q 12.59375 38.671875 18.75 41.015625 
Q 13.8125 43.796875 10.9375 48.140625 
Q 8.0625 52.484375 8.0625 57.5625 
Q 8.0625 62.9375 10.8125 67.375 
Q 13.578125 71.828125 18.484375 74.359375 
Q 23.390625 76.90625 29.296875 76.90625 
Q 35.25 76.90625 40.1875 74.390625 
Q 45.125 71.875 47.859375 67.421875 
Q 50.59375 62.984375 50.59375 57.5625 
Q 50.59375 52.59375 47.78125 48.21875 
Q 44.96875 43.84375 39.984375 41.015625 
Q 46.140625 38.625 50 33.109375 
Q 53.859375 27.59375 53.859375 21.09375 
Q 53.859375 14.65625 50.78125 9.546875 
Q 47.703125 4.4375 42.03125 1.609375 
Q 36.375 -1.21875 29.296875 -1.21875 
Q 22.265625 -1.21875 16.640625 1.609375 
Q 11.03125 4.4375 7.90625 9.5625 
Q 4.78125 14.703125 4.78125 21.09375 
z
M 14.15625 21.53125 
Q 14.15625 14.796875 18.3125 10.734375 
Q 22.46875 6.6875 29.34375 6.6875 
Q 36.078125 6.6875 40.34375 10.8125 
Q 44.625 14.9375 44.625 21.53125 
Q 44.625 27.78125 40.296875 32.046875 
Q 35.984375 36.328125 29.34375 36.328125 
Q 22.75 36.328125 18.453125 32.15625 
Q 14.15625 27.984375 14.15625 21.53125 
z
M 16.890625 56.78125 
Q 16.890625 51.703125 20.5 48.0625 
Q 24.125 44.4375 29.34375 44.4375 
Q 34.46875 44.4375 38.203125 48.09375 
Q 41.9375 51.765625 41.9375 56.78125 
Q 41.9375 61.921875 38.34375 65.484375 
Q 34.765625 69.046875 29.34375 69.046875 
Q 23.96875 69.046875 20.421875 65.546875 
Q 16.890625 62.0625 16.890625 56.78125 
z
" id="MicrosoftYaHei-56"/>
       </defs>
       <use xlink:href="#MicrosoftYaHei-56"/>
       <use x="58.642578" xlink:href="#MicrosoftYaHei-48"/>
      </g>
     </g>
    </g>
    <g id="ytick_7">
     <g id="line2d_11">
      <g>
       <use style="stroke:#000000;stroke-width:0.8;" x="57.6" xlink:href="#m9571a99bd0" y="115.392"/>
      </g>
     </g>
     <g id="text_11">
      <!-- 85 -->
      <g transform="translate(38.871875 119.388875)scale(0.1 -0.1)">
       <use xlink:href="#MicrosoftYaHei-56"/>
       <use x="58.642578" xlink:href="#MicrosoftYaHei-53"/>
      </g>
     </g>
    </g>
    <g id="ytick_8">
     <g id="line2d_12">
      <g>
       <use style="stroke:#000000;stroke-width:0.8;" x="57.6" xlink:href="#m9571a99bd0" y="84.194909"/>
      </g>
     </g>
     <g id="text_12">
      <!-- 90 -->
      <g transform="translate(38.871875 88.191784)scale(0.1 -0.1)">
       <defs>
        <path d="M 9.03125 10.25 
Q 15.28125 6.640625 22.515625 6.640625 
Q 32.671875 6.640625 38.25 14.640625 
Q 43.84375 22.65625 43.84375 37.40625 
Q 43.75 37.3125 43.65625 37.40625 
Q 38.671875 27.9375 26.90625 27.9375 
Q 17.390625 27.9375 11.140625 34.46875 
Q 4.890625 41.015625 4.890625 51.46875 
Q 4.890625 62.59375 11.71875 69.75 
Q 18.5625 76.90625 29.4375 76.90625 
Q 40.71875 76.90625 47.0625 68.046875 
Q 53.421875 59.1875 53.421875 42.234375 
Q 53.421875 21.296875 45.21875 10.015625 
Q 37.015625 -1.265625 22.515625 -1.265625 
Q 14.546875 -1.265625 9.03125 1.3125 
z
M 14.546875 52.6875 
Q 14.546875 45.0625 18.453125 40.59375 
Q 22.359375 36.140625 29.25 36.140625 
Q 35.203125 36.140625 39.25 40.203125 
Q 43.3125 44.28125 43.3125 50.09375 
Q 43.3125 58.25 39.28125 63.59375 
Q 35.25 68.953125 28.65625 68.953125 
Q 22.5625 68.953125 18.546875 64.3125 
Q 14.546875 59.671875 14.546875 52.6875 
z
" id="MicrosoftYaHei-57"/>
       </defs>
       <use xlink:href="#MicrosoftYaHei-57"/>
       <use x="58.642578" xlink:href="#MicrosoftYaHei-48"/>
      </g>
     </g>
    </g>
    <g id="ytick_9">
     <g id="line2d_13">
      <g>
       <use style="stroke:#000000;stroke-width:0.8;" x="57.6" xlink:href="#m9571a99bd0" y="52.997818"/>
      </g>
     </g>
     <g id="text_13">
      <!-- 95 -->
      <g transform="translate(38.871875 56.994693)scale(0.1 -0.1)">
       <use xlink:href="#MicrosoftYaHei-57"/>
       <use x="58.642578" xlink:href="#MicrosoftYaHei-53"/>
      </g>
     </g>
    </g>
   </g>
   <g id="line2d_14">
    <path clip-path="url(#p7efa89e3ad)" d="M 64.978512 295.488 
L 73.659115 281.640727 
L 82.339718 275.938909 
L 91.020321 264.535273 
L 99.700924 238.469818 
L 108.381526 230.324364 
L 117.062129 209.960727 
L 125.742732 190.411636 
L 134.423335 172.491636 
L 143.103938 154.571636 
L 151.784541 140.724364 
L 160.465143 119.546182 
L 169.145746 102.440727 
L 177.826349 86.149818 
L 186.506952 75.560727 
L 195.187555 64.971636 
L 203.868158 58.455273 
L 212.54876 53.568 
" style="fill:none;stroke:#1f77b4;stroke-linecap:square;stroke-width:1.5;"/>
   </g>
   <g id="patch_3">
    <path d="M 57.6 307.584 
L 57.6 41.472 
" style="fill:none;stroke:#000000;stroke-linecap:square;stroke-linejoin:miter;stroke-width:0.8;"/>
   </g>
   <g id="patch_4">
    <path d="M 219.927273 307.584 
L 219.927273 41.472 
" style="fill:none;stroke:#000000;stroke-linecap:square;stroke-linejoin:miter;stroke-width:0.8;"/>
   </g>
   <g id="patch_5">
    <path d="M 57.6 307.584 
L 219.927273 307.584 
" style="fill:none;stroke:#000000;stroke-linecap:square;stroke-linejoin:miter;stroke-width:0.8;"/>
   </g>
   <g id="patch_6">
    <path d="M 57.6 41.472 
L 219.927273 41.472 
" style="fill:none;stroke:#000000;stroke-linecap:square;stroke-linejoin:miter;stroke-width:0.8;"/>
   </g>
   <g id="legend_1">
    <g id="patch_7">
     <path d="M 64.6 64.951687 
L 156.6 64.951687 
Q 158.6 64.951687 158.6 62.951687 
L 158.6 48.472 
Q 158.6 46.472 156.6 46.472 
L 64.6 46.472 
Q 62.6 46.472 62.6 48.472 
L 62.6 62.951687 
Q 62.6 64.951687 64.6 64.951687 
z
" style="fill:#ffffff;opacity:0.8;stroke:#cccccc;stroke-linejoin:miter;"/>
    </g>
    <g id="line2d_15">
     <path d="M 66.6 54.96575 
L 86.6 54.96575 
" style="fill:none;stroke:#1f77b4;stroke-linecap:square;stroke-width:1.5;"/>
    </g>
    <g id="line2d_16"/>
    <g id="text_14">
     <!-- 训练集准确率 -->
     <g transform="translate(94.6 58.46575)scale(0.1 -0.1)">
      <defs>
       <path d="M 40.328125 80.90625 
L 47.75 80.90625 
L 47.75 42.53125 
Q 47.75 19.875 44.234375 7.28125 
Q 40.828125 -4.640625 30.953125 -13.625 
Q 27.640625 -10.59375 24.21875 -8.34375 
Q 33.6875 -1.03125 37.109375 10.109375 
Q 40.328125 21.140625 40.328125 41.84375 
z
M 86.03125 81 
L 93.453125 81 
L 93.453125 -12.0625 
L 86.03125 -12.0625 
z
M 63.09375 77.390625 
L 70.515625 77.390625 
L 70.515625 -6.296875 
L 63.09375 -6.296875 
z
M 31.640625 21.4375 
Q 31.640625 16.546875 32.328125 12.25 
Q 22.46875 3.859375 14.265625 -4.4375 
L 9.765625 1.8125 
Q 13.09375 4.9375 13.09375 10.796875 
L 13.09375 43.796875 
L 1.265625 43.796875 
L 1.265625 50.828125 
L 20.515625 50.828125 
L 20.515625 11.078125 
Q 25.78125 15.765625 31.640625 21.4375 
z
M 13.671875 81.109375 
Q 22.46875 72.3125 28.90625 65.09375 
L 22.078125 59.328125 
Q 16.109375 67.234375 7.8125 76.125 
z
" id="MicrosoftYaHei-35757"/>
       <path d="M 36.921875 53.171875 
L 47.796875 53.171875 
Q 50.046875 59.078125 52.25 65.578125 
L 34.578125 65.578125 
L 34.578125 72.21875 
L 54.5 72.21875 
Q 56.296875 77.734375 58.109375 83.640625 
L 65.921875 82.078125 
Q 64.203125 77.046875 62.5 72.21875 
L 93.75 72.21875 
L 93.75 65.578125 
L 60.109375 65.578125 
Q 57.8125 59.234375 55.515625 53.171875 
L 74.421875 53.171875 
L 74.421875 31.5 
L 94.140625 31.5 
L 94.140625 24.859375 
L 74.421875 24.859375 
L 74.421875 0.046875 
Q 74.421875 -11.46875 63.375 -11.46875 
Q 59.1875 -11.46875 52.640625 -11.375 
Q 52.046875 -8.0625 50.984375 -3.765625 
Q 56.84375 -4.4375 61.421875 -4.4375 
Q 67.1875 -4.4375 67.1875 1.703125 
L 67.1875 24.859375 
L 38.671875 24.859375 
L 38.671875 31.203125 
Q 42 38.28125 45.265625 46.53125 
L 36.921875 46.53125 
z
M 13.875 24.46875 
Q 23.921875 25.921875 34.671875 27.78125 
Q 34.078125 24.171875 33.796875 20.265625 
Q 25 19 4.984375 15.671875 
L 3.421875 23 
Q 10.453125 30.765625 18.359375 43.65625 
Q 10.40625 43.171875 3.421875 42.53125 
L 1.5625 49.171875 
Q 10.9375 61.96875 20.21875 83.84375 
L 27.34375 80.90625 
Q 17 60.59375 10.0625 49.75 
Q 16.84375 49.90625 22.171875 50.046875 
Q 26.078125 56.84375 30.171875 64.796875 
L 37.3125 61.1875 
Q 25.875 41.546875 13.875 24.46875 
z
M 47.078125 31.5 
L 67.1875 31.5 
L 67.1875 46.53125 
L 53.03125 46.53125 
Q 50.046875 38.8125 47.078125 31.5 
z
M 1.46875 1.90625 
Q 16.109375 4.546875 34.671875 8.734375 
Q 34.375 4.9375 34.46875 1.21875 
Q 19.234375 -1.609375 3.421875 -5.515625 
z
M 49.90625 19.875 
L 56.84375 16.65625 
Q 49.90625 3.171875 42.1875 -8.546875 
Q 39.0625 -6.203125 35.546875 -4.34375 
Q 43.953125 7.171875 49.90625 19.875 
z
M 79.59375 16.265625 
L 85.9375 19.96875 
Q 93.171875 9.03125 99.703125 -1.90625 
L 92.96875 -6.109375 
Q 86.625 5.71875 79.59375 16.265625 
z
" id="MicrosoftYaHei-32451"/>
       <path d="M 47.75 80.21875 
L 53.515625 83.734375 
Q 58.109375 78.65625 61.03125 73.78125 
L 56.546875 70.953125 
L 93.953125 70.953125 
L 93.953125 64.890625 
L 56.9375 64.890625 
L 56.9375 57.953125 
L 89.65625 57.953125 
L 89.65625 52.296875 
L 56.9375 52.296875 
L 56.9375 45.359375 
L 89.65625 45.359375 
L 89.65625 39.703125 
L 56.9375 39.703125 
L 56.9375 32.5625 
L 94.234375 32.5625 
L 94.234375 26.515625 
L 23.046875 26.515625 
L 23.046875 22.796875 
L 16.21875 22.796875 
L 16.21875 57.5625 
Q 11.1875 51.703125 5.953125 47.015625 
Q 4.390625 49.859375 1.265625 53.46875 
Q 15.4375 65.28125 25.203125 82.5625 
L 31.9375 79.546875 
Q 29.203125 75.046875 26.375 70.953125 
L 54 70.953125 
Q 51.375 75.390625 47.75 80.21875 
z
M 4.5 17.828125 
L 46.578125 17.828125 
L 46.578125 24.46875 
L 53.421875 24.46875 
L 53.421875 17.828125 
L 95.40625 17.828125 
L 95.40625 11.578125 
L 61.03125 11.578125 
Q 78.125 -0.484375 99.03125 -4.734375 
Q 96.390625 -8.84375 94.4375 -11.96875 
Q 70.609375 -5.078125 53.421875 9.859375 
L 53.421875 -13.03125 
L 46.578125 -13.03125 
L 46.578125 9.96875 
Q 28.8125 -4.890625 5.5625 -12.15625 
Q 3.515625 -9.125 0.984375 -6 
Q 21.96875 -0.875 38.671875 11.578125 
L 4.5 11.578125 
z
M 23.046875 32.5625 
L 50.09375 32.5625 
L 50.09375 39.703125 
L 23.046875 39.703125 
z
M 23.046875 45.359375 
L 50.09375 45.359375 
L 50.09375 52.296875 
L 23.046875 52.296875 
z
M 23.046875 57.953125 
L 50.09375 57.953125 
L 50.09375 64.890625 
L 23.046875 64.890625 
z
" id="MicrosoftYaHei-38598"/>
       <path d="M 22.078125 43.21875 
Q 36.140625 60.40625 44.828125 83.34375 
L 52.046875 80.8125 
Q 48.875 73.34375 45.40625 66.453125 
L 96.78125 66.453125 
L 96.78125 59.71875 
L 73.046875 59.71875 
L 73.046875 45.171875 
L 94.140625 45.171875 
L 94.140625 38.421875 
L 73.046875 38.421875 
L 73.046875 23.875 
L 94.34375 23.875 
L 94.34375 17.140625 
L 73.046875 17.140625 
L 73.046875 1.21875 
L 98.046875 1.21875 
L 98.046875 -5.328125 
L 43.265625 -5.328125 
L 43.265625 -13.140625 
L 35.640625 -13.140625 
L 35.640625 48.921875 
Q 31.78125 42.78125 27.640625 37.25 
Q 25.484375 40.28125 22.078125 43.21875 
z
M 43.265625 1.21875 
L 65.4375 1.21875 
L 65.4375 17.140625 
L 43.265625 17.140625 
z
M 16.890625 37.84375 
Q 20.703125 35.796875 24.3125 34.515625 
Q 17.390625 14.3125 10.640625 -5.8125 
L 2.640625 -2.203125 
Q 10.15625 15.671875 16.890625 37.84375 
z
M 43.265625 23.875 
L 65.4375 23.875 
L 65.4375 38.421875 
L 43.265625 38.421875 
z
M 43.265625 45.171875 
L 65.4375 45.171875 
L 65.4375 59.71875 
L 43.265625 59.71875 
z
M 8.296875 77.984375 
Q 16.40625 68.5 24.703125 57.953125 
Q 24.03125 57.46875 17.96875 52.203125 
Q 10.640625 62.453125 2.15625 73 
z
M 61.234375 79.9375 
L 67.578125 83.9375 
Q 71.390625 79.25 76.265625 72.21875 
L 69.53125 67.71875 
Q 64.9375 74.75 61.234375 79.9375 
z
" id="MicrosoftYaHei-20934"/>
       <path d="M 32.421875 53.953125 
Q 46.1875 67.71875 54 83.734375 
L 61.421875 82.375 
Q 59.078125 77.984375 56.546875 73.78125 
L 84.96875 73.78125 
L 84.96875 67.625 
L 76.703125 57.28125 
L 94.734375 57.28125 
L 94.734375 -0.828125 
Q 94.734375 -11.375 85.546875 -11.375 
Q 80.375 -11.375 76.65625 -11.1875 
Q 76.078125 -7.765625 75.203125 -4.046875 
Q 80.5625 -4.546875 83.296875 -4.546875 
Q 87.796875 -4.546875 87.796875 0.25 
L 87.796875 11.46875 
L 71.6875 11.46875 
L 71.6875 -10.296875 
L 64.75 -10.296875 
L 64.75 11.46875 
L 48.640625 11.46875 
Q 46 -4.109375 38.1875 -13.8125 
Q 35.75 -10.984375 32.515625 -7.953125 
Q 43.0625 4.546875 43.0625 28.765625 
L 43.0625 54.78125 
Q 40.578125 51.8125 37.984375 48.96875 
Q 35.640625 51.21875 32.421875 53.953125 
z
M 0.484375 26.421875 
Q 11.578125 44.28125 16.65625 67.046875 
L 3.609375 67.046875 
L 3.609375 73.6875 
L 38.578125 73.6875 
L 38.578125 67.046875 
L 23.578125 67.046875 
Q 21.1875 56.453125 17.625 46.734375 
L 34.375 46.734375 
L 34.375 2 
L 17.96875 2 
L 17.96875 -5.421875 
L 11.53125 -5.421875 
L 11.53125 32.171875 
Q 8.734375 26.421875 5.46875 21.046875 
Q 3.515625 23.390625 0.484375 26.421875 
z
M 27.9375 8.453125 
L 27.9375 40.28125 
L 17.96875 40.28125 
L 17.96875 8.453125 
z
M 76.171875 67.53125 
L 52.59375 67.53125 
Q 49.03125 62.203125 45.0625 57.28125 
L 68.5 57.28125 
z
M 71.6875 17.71875 
L 87.796875 17.71875 
L 87.796875 31.109375 
L 71.6875 31.109375 
z
M 87.796875 50.640625 
L 71.6875 50.640625 
L 71.6875 37.359375 
L 87.796875 37.359375 
z
M 49.46875 17.71875 
L 64.75 17.71875 
L 64.75 31.109375 
L 50 31.109375 
Q 50 28.765625 49.46875 17.71875 
z
M 50 37.359375 
L 64.75 37.359375 
L 64.75 50.640625 
L 50 50.640625 
z
" id="MicrosoftYaHei-30830"/>
       <path d="M 39.453125 31.390625 
Q 40.96875 31.5 61.375 32.515625 
Q 58.9375 35.9375 56.640625 38.921875 
L 61.921875 42.234375 
Q 68.953125 34.421875 74.90625 25.828125 
L 68.65625 21.921875 
Q 66.9375 24.515625 65.28125 26.953125 
Q 46.734375 25.921875 34.578125 24.953125 
Q 32.421875 24.75 29.390625 24.078125 
L 26.953125 30.71875 
Q 29.890625 31.6875 31.34375 32.5625 
Q 39.59375 38.140625 47.65625 45.515625 
Q 40.578125 45.21875 35.546875 44.78125 
Q 33.5 44.484375 31.0625 43.890625 
L 28.125 49.859375 
Q 30.5625 50.734375 32.625 52.59375 
Q 39.203125 58.15625 44.921875 66.0625 
L 3.609375 66.0625 
L 3.609375 72.90625 
L 47.359375 72.90625 
Q 44.96875 77.25 42.875 80.515625 
L 49.90625 83.9375 
Q 53.71875 78.125 56.5 72.90625 
L 96.484375 72.90625 
L 96.484375 66.0625 
L 47.703125 66.0625 
L 52.34375 63.625 
Q 44.4375 55.515625 38.96875 50.734375 
Q 44.53125 50.875 53.515625 51.078125 
Q 57.421875 54.984375 61.328125 59.328125 
L 68.0625 55.421875 
Q 52.546875 40.671875 39.453125 31.390625 
z
M 2.25 15.484375 
L 46.78125 15.484375 
L 46.78125 24.078125 
L 54.5 24.078125 
L 54.5 15.484375 
L 98.046875 15.484375 
L 98.046875 8.640625 
L 54.5 8.640625 
L 54.5 -13.328125 
L 46.78125 -13.328125 
L 46.78125 8.640625 
L 2.25 8.640625 
z
M 26.859375 41.75 
L 30.375 35.984375 
Q 18.75 29.15625 6.640625 22.015625 
L 2.546875 28.5625 
Q 12.703125 33.34375 26.859375 41.75 
z
M 75.875 41.84375 
Q 89.84375 33.9375 97.65625 28.375 
L 93.359375 22.015625 
Q 83.296875 29.828125 71.875 36.578125 
z
M 93.65625 56.109375 
Q 86.234375 49.65625 77.546875 43.890625 
L 72.5625 49.078125 
Q 81.9375 55.21875 88.09375 61.375 
z
M 5.671875 56.78125 
L 10.640625 61.578125 
Q 18.75 55.125 24.8125 49.359375 
L 19.34375 44 
Q 13.671875 49.953125 5.671875 56.78125 
z
" id="MicrosoftYaHei-29575"/>
      </defs>
      <use xlink:href="#MicrosoftYaHei-35757"/>
      <use x="100" xlink:href="#MicrosoftYaHei-32451"/>
      <use x="200" xlink:href="#MicrosoftYaHei-38598"/>
      <use x="300" xlink:href="#MicrosoftYaHei-20934"/>
      <use x="400" xlink:href="#MicrosoftYaHei-30830"/>
      <use x="500" xlink:href="#MicrosoftYaHei-29575"/>
     </g>
    </g>
   </g>
  </g>
  <g id="axes_2">
   <g id="patch_8">
    <path d="M 252.392727 307.584 
L 414.72 307.584 
L 414.72 41.472 
L 252.392727 41.472 
z
" style="fill:#ffffff;"/>
   </g>
   <g id="matplotlib.axis_3">
    <g id="xtick_5">
     <g id="line2d_17">
      <g>
       <use style="stroke:#000000;stroke-width:0.8;" x="277.132445" xlink:href="#m15e8822730" y="307.584"/>
      </g>
     </g>
     <g id="text_15">
      <!-- 5 -->
      <g transform="translate(274.200414 322.57775)scale(0.1 -0.1)">
       <use xlink:href="#MicrosoftYaHei-53"/>
      </g>
     </g>
    </g>
    <g id="xtick_6">
     <g id="line2d_18">
      <g>
       <use style="stroke:#000000;stroke-width:0.8;" x="320.535459" xlink:href="#m15e8822730" y="307.584"/>
      </g>
     </g>
     <g id="text_16">
      <!-- 10 -->
      <g transform="translate(314.671397 322.57775)scale(0.1 -0.1)">
       <use xlink:href="#MicrosoftYaHei-49"/>
       <use x="58.642578" xlink:href="#MicrosoftYaHei-48"/>
      </g>
     </g>
    </g>
    <g id="xtick_7">
     <g id="line2d_19">
      <g>
       <use style="stroke:#000000;stroke-width:0.8;" x="363.938474" xlink:href="#m15e8822730" y="307.584"/>
      </g>
     </g>
     <g id="text_17">
      <!-- 15 -->
      <g transform="translate(358.074411 322.57775)scale(0.1 -0.1)">
       <use xlink:href="#MicrosoftYaHei-49"/>
       <use x="58.642578" xlink:href="#MicrosoftYaHei-53"/>
      </g>
     </g>
    </g>
    <g id="xtick_8">
     <g id="line2d_20">
      <g>
       <use style="stroke:#000000;stroke-width:0.8;" x="407.341488" xlink:href="#m15e8822730" y="307.584"/>
      </g>
     </g>
     <g id="text_18">
      <!-- 20 -->
      <g transform="translate(401.477425 322.57775)scale(0.1 -0.1)">
       <use xlink:href="#MicrosoftYaHei-50"/>
       <use x="58.642578" xlink:href="#MicrosoftYaHei-48"/>
      </g>
     </g>
    </g>
   </g>
   <g id="matplotlib.axis_4">
    <g id="ytick_10">
     <g id="line2d_21">
      <g>
       <use style="stroke:#000000;stroke-width:0.8;" x="252.392727" xlink:href="#m9571a99bd0" y="291.8592"/>
      </g>
     </g>
     <g id="text_19">
      <!-- 46.5 -->
      <g transform="translate(225.392727 295.856075)scale(0.1 -0.1)">
       <defs>
        <path d="M 45.40625 75.640625 
L 45.40625 25.6875 
L 56.734375 25.6875 
L 56.734375 17.78125 
L 45.40625 17.78125 
L 45.40625 0 
L 36.140625 0 
L 36.140625 17.78125 
L 0.828125 17.78125 
L 0.828125 25.25 
Q 10.25 35.84375 19.765625 49.65625 
Q 29.296875 63.484375 35.5 75.640625 
z
M 11.578125 25.6875 
L 36.140625 25.6875 
L 36.140625 61.71875 
Q 31.0625 52.59375 25.25 44.015625 
Q 19.4375 35.453125 11.578125 25.6875 
z
" id="MicrosoftYaHei-52"/>
        <path d="M 5.8125 5.03125 
Q 5.8125 7.671875 7.609375 9.46875 
Q 9.421875 11.28125 12.109375 11.28125 
Q 14.84375 11.28125 16.640625 9.453125 
Q 18.453125 7.625 18.453125 5.03125 
Q 18.453125 2.484375 16.640625 0.65625 
Q 14.84375 -1.171875 12.0625 -1.171875 
Q 9.375 -1.171875 7.59375 0.65625 
Q 5.8125 2.484375 5.8125 5.03125 
z
" id="MicrosoftYaHei-46"/>
       </defs>
       <use xlink:href="#MicrosoftYaHei-52"/>
       <use x="58.642578" xlink:href="#MicrosoftYaHei-54"/>
       <use x="117.285156" xlink:href="#MicrosoftYaHei-46"/>
       <use x="141.357422" xlink:href="#MicrosoftYaHei-53"/>
      </g>
     </g>
    </g>
    <g id="ytick_11">
     <g id="line2d_22">
      <g>
       <use style="stroke:#000000;stroke-width:0.8;" x="252.392727" xlink:href="#m9571a99bd0" y="259.7376"/>
      </g>
     </g>
     <g id="text_20">
      <!-- 47.0 -->
      <g transform="translate(225.392727 263.734475)scale(0.1 -0.1)">
       <use xlink:href="#MicrosoftYaHei-52"/>
       <use x="58.642578" xlink:href="#MicrosoftYaHei-55"/>
       <use x="117.285156" xlink:href="#MicrosoftYaHei-46"/>
       <use x="141.357422" xlink:href="#MicrosoftYaHei-48"/>
      </g>
     </g>
    </g>
    <g id="ytick_12">
     <g id="line2d_23">
      <g>
       <use style="stroke:#000000;stroke-width:0.8;" x="252.392727" xlink:href="#m9571a99bd0" y="227.616"/>
      </g>
     </g>
     <g id="text_21">
      <!-- 47.5 -->
      <g transform="translate(225.392727 231.612875)scale(0.1 -0.1)">
       <use xlink:href="#MicrosoftYaHei-52"/>
       <use x="58.642578" xlink:href="#MicrosoftYaHei-55"/>
       <use x="117.285156" xlink:href="#MicrosoftYaHei-46"/>
       <use x="141.357422" xlink:href="#MicrosoftYaHei-53"/>
      </g>
     </g>
    </g>
    <g id="ytick_13">
     <g id="line2d_24">
      <g>
       <use style="stroke:#000000;stroke-width:0.8;" x="252.392727" xlink:href="#m9571a99bd0" y="195.4944"/>
      </g>
     </g>
     <g id="text_22">
      <!-- 48.0 -->
      <g transform="translate(225.392727 199.491275)scale(0.1 -0.1)">
       <use xlink:href="#MicrosoftYaHei-52"/>
       <use x="58.642578" xlink:href="#MicrosoftYaHei-56"/>
       <use x="117.285156" xlink:href="#MicrosoftYaHei-46"/>
       <use x="141.357422" xlink:href="#MicrosoftYaHei-48"/>
      </g>
     </g>
    </g>
    <g id="ytick_14">
     <g id="line2d_25">
      <g>
       <use style="stroke:#000000;stroke-width:0.8;" x="252.392727" xlink:href="#m9571a99bd0" y="163.3728"/>
      </g>
     </g>
     <g id="text_23">
      <!-- 48.5 -->
      <g transform="translate(225.392727 167.369675)scale(0.1 -0.1)">
       <use xlink:href="#MicrosoftYaHei-52"/>
       <use x="58.642578" xlink:href="#MicrosoftYaHei-56"/>
       <use x="117.285156" xlink:href="#MicrosoftYaHei-46"/>
       <use x="141.357422" xlink:href="#MicrosoftYaHei-53"/>
      </g>
     </g>
    </g>
    <g id="ytick_15">
     <g id="line2d_26">
      <g>
       <use style="stroke:#000000;stroke-width:0.8;" x="252.392727" xlink:href="#m9571a99bd0" y="131.2512"/>
      </g>
     </g>
     <g id="text_24">
      <!-- 49.0 -->
      <g transform="translate(225.392727 135.248075)scale(0.1 -0.1)">
       <use xlink:href="#MicrosoftYaHei-52"/>
       <use x="58.642578" xlink:href="#MicrosoftYaHei-57"/>
       <use x="117.285156" xlink:href="#MicrosoftYaHei-46"/>
       <use x="141.357422" xlink:href="#MicrosoftYaHei-48"/>
      </g>
     </g>
    </g>
    <g id="ytick_16">
     <g id="line2d_27">
      <g>
       <use style="stroke:#000000;stroke-width:0.8;" x="252.392727" xlink:href="#m9571a99bd0" y="99.1296"/>
      </g>
     </g>
     <g id="text_25">
      <!-- 49.5 -->
      <g transform="translate(225.392727 103.126475)scale(0.1 -0.1)">
       <use xlink:href="#MicrosoftYaHei-52"/>
       <use x="58.642578" xlink:href="#MicrosoftYaHei-57"/>
       <use x="117.285156" xlink:href="#MicrosoftYaHei-46"/>
       <use x="141.357422" xlink:href="#MicrosoftYaHei-53"/>
      </g>
     </g>
    </g>
    <g id="ytick_17">
     <g id="line2d_28">
      <g>
       <use style="stroke:#000000;stroke-width:0.8;" x="252.392727" xlink:href="#m9571a99bd0" y="67.008"/>
      </g>
     </g>
     <g id="text_26">
      <!-- 50.0 -->
      <g transform="translate(225.392727 71.004875)scale(0.1 -0.1)">
       <use xlink:href="#MicrosoftYaHei-53"/>
       <use x="58.642578" xlink:href="#MicrosoftYaHei-48"/>
       <use x="117.285156" xlink:href="#MicrosoftYaHei-46"/>
       <use x="141.357422" xlink:href="#MicrosoftYaHei-48"/>
      </g>
     </g>
    </g>
   </g>
   <g id="line2d_29">
    <path clip-path="url(#pd418cec840)" d="M 259.77124 214.848 
L 268.451842 161.088 
L 277.132445 187.968 
L 285.813048 161.088 
L 294.493651 268.608 
L 303.174254 80.448 
L 311.854857 187.968 
L 320.535459 107.328 
L 329.216062 107.328 
L 337.896665 53.568 
L 346.577268 53.568 
L 355.257871 134.208 
L 363.938474 241.728 
L 372.619076 241.728 
L 381.299679 295.488 
L 389.980282 268.608 
L 398.660885 214.848 
L 407.341488 241.728 
" style="fill:none;stroke:#1f77b4;stroke-linecap:square;stroke-width:1.5;"/>
   </g>
   <g id="line2d_30">
    <path clip-path="url(#pd418cec840)" d="M 259.77124 214.848 
L 268.451842 214.848 
L 277.132445 187.968 
L 285.813048 161.088 
L 294.493651 161.088 
L 303.174254 187.968 
L 311.854857 107.328 
L 320.535459 134.208 
L 329.216062 161.088 
L 337.896665 80.448 
L 346.577268 53.568 
L 355.257871 53.568 
L 363.938474 134.208 
L 372.619076 214.848 
L 381.299679 268.608 
L 389.980282 241.728 
L 398.660885 187.968 
L 407.341488 187.968 
" style="fill:none;stroke:#ff7f0e;stroke-linecap:square;stroke-width:1.5;"/>
   </g>
   <g id="patch_9">
    <path d="M 252.392727 307.584 
L 252.392727 41.472 
" style="fill:none;stroke:#000000;stroke-linecap:square;stroke-linejoin:miter;stroke-width:0.8;"/>
   </g>
   <g id="patch_10">
    <path d="M 414.72 307.584 
L 414.72 41.472 
" style="fill:none;stroke:#000000;stroke-linecap:square;stroke-linejoin:miter;stroke-width:0.8;"/>
   </g>
   <g id="patch_11">
    <path d="M 252.392727 307.584 
L 414.72 307.584 
" style="fill:none;stroke:#000000;stroke-linecap:square;stroke-linejoin:miter;stroke-width:0.8;"/>
   </g>
   <g id="patch_12">
    <path d="M 252.392727 41.472 
L 414.72 41.472 
" style="fill:none;stroke:#000000;stroke-linecap:square;stroke-linejoin:miter;stroke-width:0.8;"/>
   </g>
   <g id="legend_2">
    <g id="patch_13">
     <path d="M 259.392727 302.584 
L 381.392727 302.584 
Q 383.392727 302.584 383.392727 300.584 
L 383.392727 270.624625 
Q 383.392727 268.624625 381.392727 268.624625 
L 259.392727 268.624625 
Q 257.392727 268.624625 257.392727 270.624625 
L 257.392727 300.584 
Q 257.392727 302.584 259.392727 302.584 
z
" style="fill:#ffffff;opacity:0.8;stroke:#cccccc;stroke-linejoin:miter;"/>
    </g>
    <g id="line2d_31">
     <path d="M 261.392727 277.118375 
L 281.392727 277.118375 
" style="fill:none;stroke:#1f77b4;stroke-linecap:square;stroke-width:1.5;"/>
    </g>
    <g id="line2d_32"/>
    <g id="text_27">
     <!-- 剪枝前测试集准确率 -->
     <g transform="translate(289.392727 280.618375)scale(0.1 -0.1)">
      <defs>
       <path d="M 17.875 20.953125 
L 11.03125 20.953125 
L 11.03125 60.6875 
L 51.5625 60.6875 
L 51.5625 30.8125 
Q 51.5625 21.140625 41.890625 21.140625 
Q 38.671875 21.140625 32.90625 21.234375 
Q 32.421875 23.390625 31.453125 27.09375 
Q 37.40625 26.8125 40.4375 26.8125 
Q 44.734375 26.8125 44.734375 31.390625 
L 44.734375 32.5625 
L 17.875 32.5625 
z
M 5.46875 16.265625 
L 90.625 16.265625 
Q 89.65625 7.28125 88.671875 0.53125 
Q 86.921875 -11.46875 72.65625 -11.578125 
Q 63.96875 -11.671875 53.03125 -11.28125 
Q 52.34375 -7.375 50.984375 -3.265625 
Q 63.484375 -4.25 71 -4.046875 
Q 79.984375 -3.953125 80.953125 2.296875 
Q 81.546875 5.328125 82.03125 9.90625 
L 42.484375 9.90625 
Q 35.75 -9.078125 8.296875 -13.71875 
Q 6.25 -10.59375 3.125 -6.78125 
Q 28.21875 -3.609375 34.125 9.90625 
L 5.46875 9.90625 
z
M 2.4375 72.796875 
L 32.328125 72.796875 
Q 29.109375 77.203125 26.5625 79.828125 
L 32.515625 83.640625 
Q 36.625 79.4375 40.71875 74.65625 
L 37.84375 72.796875 
L 59.421875 72.796875 
Q 63.875 78.21875 67.28125 83.546875 
L 74.90625 79.34375 
Q 72.125 76.515625 68.5 72.796875 
L 97.65625 72.796875 
L 97.65625 66.453125 
L 2.4375 66.453125 
z
M 82.421875 61.578125 
L 89.65625 61.578125 
L 89.65625 32.28125 
Q 89.65625 21.625 79.109375 21.53125 
Q 75.6875 21.4375 65.53125 21.734375 
Q 64.9375 25.34375 64.0625 29.046875 
Q 72.171875 28.265625 77.34375 28.265625 
Q 82.421875 28.265625 82.421875 33.34375 
z
M 62.984375 59.625 
L 69.828125 59.625 
L 69.828125 34.8125 
L 62.984375 34.8125 
z
M 44.734375 54.734375 
L 17.875 54.734375 
L 17.875 48.875 
L 44.734375 48.875 
z
M 17.875 37.84375 
L 44.734375 37.84375 
L 44.734375 43.609375 
L 17.875 43.609375 
z
" id="MicrosoftYaHei-21098"/>
       <path d="M 38.96875 38.328125 
L 38.96875 44.78125 
L 62.5 44.78125 
L 62.5 59.71875 
L 37.984375 59.71875 
L 37.984375 66.84375 
L 62.5 66.84375 
L 62.5 82.5625 
L 70.3125 82.5625 
L 70.3125 66.84375 
L 96.875 66.84375 
L 96.875 59.71875 
L 70.3125 59.71875 
L 70.3125 44.78125 
L 91.109375 44.78125 
L 91.109375 39.109375 
Q 85.546875 20.75 71.296875 7.375 
Q 82.328125 -1.421875 98.734375 -5.90625 
Q 95.015625 -10.203125 92.484375 -13.328125 
Q 76.46875 -7.28125 65.4375 2.296875 
Q 53.125 -7.171875 35.640625 -13.8125 
Q 33.59375 -10.6875 30.46875 -6.890625 
Q 48.046875 -1.21875 60.0625 7.5625 
Q 48.4375 20.265625 43.953125 38.328125 
z
M 0.984375 21.625 
Q 10.640625 35.296875 16.015625 55.21875 
L 2.546875 55.21875 
L 2.546875 61.96875 
L 16.40625 61.96875 
L 16.40625 82.171875 
L 23.640625 82.171875 
L 23.640625 61.96875 
L 35.84375 61.96875 
L 35.84375 55.21875 
L 23.640625 55.21875 
L 23.640625 42.71875 
L 26.859375 45.359375 
Q 34.375 36.765625 39.84375 29.34375 
L 34.1875 25.046875 
Q 30.28125 30.90625 23.640625 39.203125 
L 23.640625 -13.234375 
L 16.40625 -13.234375 
L 16.40625 37.15625 
Q 11.328125 22.90625 4.5 13.140625 
Q 3.03125 17.328125 0.984375 21.625 
z
M 82.625 38.328125 
L 51.375 38.328125 
Q 55.765625 22.90625 65.921875 12.359375 
Q 77.828125 23.1875 82.625 38.328125 
z
" id="MicrosoftYaHei-26525"/>
       <path d="M 16.21875 -13.140625 
L 8.796875 -13.140625 
L 8.796875 51.90625 
L 51.5625 51.90625 
L 51.5625 -2.6875 
Q 51.5625 -12.25 41.703125 -12.0625 
Q 37.59375 -12.0625 30.46875 -11.859375 
Q 29.890625 -8.0625 29 -4.640625 
Q 34.96875 -5.125 40.046875 -5.125 
Q 44.140625 -5.21875 44.140625 -1.125 
L 44.140625 11.28125 
L 16.21875 11.28125 
z
M 2.34375 68.3125 
L 33.890625 68.3125 
Q 30.671875 73.390625 25.6875 79.34375 
L 31.84375 83.546875 
Q 37.890625 76.8125 41.609375 71.53125 
L 36.765625 68.3125 
L 63.484375 68.3125 
L 59.578125 70.453125 
Q 64.75 76.8125 68.5625 83.734375 
L 75.984375 79.4375 
Q 71.484375 73.296875 66.9375 68.3125 
L 97.859375 68.3125 
L 97.859375 61.46875 
L 2.34375 61.46875 
z
M 83.296875 55.03125 
L 90.921875 55.03125 
L 90.921875 0.4375 
Q 90.921875 -11.578125 79.59375 -11.671875 
Q 74.421875 -11.765625 66.703125 -11.578125 
Q 66.21875 -7.5625 65.328125 -3.375 
Q 72.5625 -4.15625 77.046875 -4.15625 
Q 83.296875 -4.15625 83.296875 2.203125 
z
M 63.1875 50.34375 
L 70.609375 50.34375 
L 70.609375 6.390625 
L 63.1875 6.390625 
z
M 44.140625 45.265625 
L 16.21875 45.265625 
L 16.21875 34.8125 
L 44.140625 34.8125 
z
M 16.21875 17.828125 
L 44.140625 17.828125 
L 44.140625 28.265625 
L 16.21875 28.265625 
z
" id="MicrosoftYaHei-21069"/>
       <path d="M 13.671875 27.390625 
Q 18.359375 24.953125 21.390625 23.78125 
Q 14.84375 -0.640625 11.921875 -12.25 
L 3.90625 -8.546875 
Q 9.671875 7.765625 13.671875 27.390625 
z
M 9.96875 80.71875 
Q 15.921875 75.734375 24.8125 67.234375 
Q 21.578125 64.109375 18.953125 61.375 
Q 11.8125 69.28125 4.890625 75.828125 
z
M 5.5625 55.609375 
Q 13.765625 48.96875 21.09375 42.4375 
Q 18.5625 39.796875 15.4375 36.28125 
Q 6.640625 44.96875 0.78125 50.25 
z
M 87.109375 82.5625 
L 94.234375 82.5625 
L 94.234375 -0.53125 
Q 94.234375 -11.765625 83.40625 -11.765625 
Q 78.71875 -11.765625 72.265625 -11.578125 
Q 71.875 -7.953125 70.90625 -3.5625 
Q 77.15625 -4.25 81.546875 -4.25 
Q 87.109375 -4.25 87.109375 1.3125 
z
M 78.71875 9.90625 
L 71.875 9.90625 
L 71.875 74.65625 
L 78.71875 74.65625 
z
M 26.65625 77.203125 
L 63.484375 77.203125 
L 63.484375 15.484375 
L 56.453125 15.484375 
L 56.453125 70.359375 
L 33.6875 70.359375 
L 33.6875 15.484375 
L 26.65625 15.484375 
z
M 41.890625 61.96875 
L 49.03125 61.96875 
L 49.03125 37.75 
Q 49.03125 22.90625 46.296875 13.921875 
Q 58.984375 4.15625 68.359375 -3.65625 
L 63.09375 -9.625 
Q 55.28125 -2.203125 43.75 7.375 
Q 37.703125 -4.640625 21.96875 -13.8125 
Q 19.828125 -10.6875 17.1875 -7.5625 
Q 31.734375 0.828125 37.109375 11.078125 
Q 41.890625 19.96875 41.890625 37.546875 
z
" id="MicrosoftYaHei-27979"/>
       <path d="M 29.890625 63.71875 
L 65.53125 63.71875 
Q 65.4375 72.75 65.4375 83.34375 
L 73.140625 83.34375 
Q 72.953125 71.734375 73.046875 63.71875 
L 97.171875 63.71875 
L 97.171875 56.59375 
L 73.1875 56.59375 
Q 74.171875 15.28125 82.421875 0.34375 
Q 85.453125 -4.734375 87.5 -4.734375 
Q 89.15625 -4.734375 89.84375 -0.828125 
Q 90.828125 5.125 91.3125 14.703125 
Q 95.515625 13.03125 98.640625 12.15625 
Q 97.359375 1.125 96.1875 -4.640625 
Q 94.625 -12.84375 87.984375 -12.84375 
Q 82.515625 -12.84375 77.15625 -5.328125 
Q 67.1875 9.125 65.71875 56.59375 
L 29.890625 56.59375 
z
M 28.125 1.03125 
Q 35.5 2 43.5625 3.265625 
L 43.5625 33.546875 
L 29.59375 33.546875 
L 29.59375 40.484375 
L 63.375 40.484375 
L 63.375 33.546875 
L 50.78125 33.546875 
L 50.78125 4.390625 
Q 58.453125 5.671875 66.703125 7.171875 
Q 66.5 3.265625 66.5 -0.4375 
Q 45.125 -3.859375 30.078125 -6.59375 
z
M 31.84375 20.84375 
Q 32.328125 15.375 32.90625 11.375 
Q 26.375 5.125 19.828125 -1.609375 
Q 16.796875 -4.734375 14.75 -7.5625 
L 9.28125 -1.3125 
Q 12.703125 2.484375 12.703125 8.0625 
L 12.703125 44 
L 1.375 44 
L 1.375 50.921875 
L 20.125 50.921875 
L 20.125 8.9375 
Q 25.390625 14.015625 31.84375 20.84375 
z
M 10.9375 80.8125 
Q 19.734375 72.21875 26.375 64.59375 
L 19.921875 59.03125 
Q 13.765625 67.140625 5.375 75.828125 
z
M 76.859375 76.515625 
L 81.34375 81.203125 
Q 89.15625 75.4375 93.75 71.046875 
L 88.375 65.578125 
Q 83.015625 71.34375 76.859375 76.515625 
z
" id="MicrosoftYaHei-35797"/>
      </defs>
      <use xlink:href="#MicrosoftYaHei-21098"/>
      <use x="100" xlink:href="#MicrosoftYaHei-26525"/>
      <use x="200" xlink:href="#MicrosoftYaHei-21069"/>
      <use x="300" xlink:href="#MicrosoftYaHei-27979"/>
      <use x="400" xlink:href="#MicrosoftYaHei-35797"/>
      <use x="500" xlink:href="#MicrosoftYaHei-38598"/>
      <use x="600" xlink:href="#MicrosoftYaHei-20934"/>
      <use x="700" xlink:href="#MicrosoftYaHei-30830"/>
      <use x="800" xlink:href="#MicrosoftYaHei-29575"/>
     </g>
    </g>
    <g id="line2d_33">
     <path d="M 261.392727 292.598062 
L 281.392727 292.598062 
" style="fill:none;stroke:#ff7f0e;stroke-linecap:square;stroke-width:1.5;"/>
    </g>
    <g id="line2d_34"/>
    <g id="text_28">
     <!-- 剪枝后测试集准确率 -->
     <g transform="translate(289.392727 296.098062)scale(0.1 -0.1)">
      <defs>
       <path d="M 29.5 31 
L 88.875 31 
L 88.875 -12.9375 
L 81.0625 -12.9375 
L 81.0625 -6.296875 
L 37.3125 -6.296875 
L 37.3125 -12.9375 
L 29.5 -12.9375 
z
M 20.515625 46.734375 
Q 20.515625 19.875 17.78125 10.5 
Q 15.046875 -0.25 6.15625 -13.234375 
Q 3.90625 -9.90625 0.78125 -6.390625 
Q 7.71875 3.46875 10.15625 13.421875 
Q 12.59375 23 12.59375 41.546875 
L 12.59375 74.46875 
Q 55.375 75.828125 87.984375 80.328125 
L 92.671875 72.21875 
Q 52.25 68.109375 20.515625 66.9375 
L 20.515625 54.046875 
L 97.859375 54.046875 
L 97.859375 46.734375 
z
M 81.0625 23.875 
L 37.3125 23.875 
L 37.3125 0.640625 
L 81.0625 0.640625 
z
" id="MicrosoftYaHei-21518"/>
      </defs>
      <use xlink:href="#MicrosoftYaHei-21098"/>
      <use x="100" xlink:href="#MicrosoftYaHei-26525"/>
      <use x="200" xlink:href="#MicrosoftYaHei-21518"/>
      <use x="300" xlink:href="#MicrosoftYaHei-27979"/>
      <use x="400" xlink:href="#MicrosoftYaHei-35797"/>
      <use x="500" xlink:href="#MicrosoftYaHei-38598"/>
      <use x="600" xlink:href="#MicrosoftYaHei-20934"/>
      <use x="700" xlink:href="#MicrosoftYaHei-30830"/>
      <use x="800" xlink:href="#MicrosoftYaHei-29575"/>
     </g>
    </g>
   </g>
  </g>
 </g>
 <defs>
  <clipPath id="p7efa89e3ad">
   <rect height="266.112" width="162.327273" x="57.6" y="41.472"/>
  </clipPath>
  <clipPath id="pd418cec840">
   <rect height="266.112" width="162.327273" x="252.392727" y="41.472"/>
  </clipPath>
 </defs>
</svg>
