<?xml version="1.0" encoding="utf-8" standalone="no"?>
<!DOCTYPE svg PUBLIC "-//W3C//DTD SVG 1.1//EN"
  "http://www.w3.org/Graphics/SVG/1.1/DTD/svg11.dtd">
<!-- Created with matplotlib (https://matplotlib.org/) -->
<svg height="345.6pt" version="1.1" viewBox="0 0 460.8 345.6" width="460.8pt" xmlns="http://www.w3.org/2000/svg" xmlns:xlink="http://www.w3.org/1999/xlink">
 <metadata>
  <rdf:RDF xmlns:cc="http://creativecommons.org/ns#" xmlns:dc="http://purl.org/dc/elements/1.1/" xmlns:rdf="http://www.w3.org/1999/02/22-rdf-syntax-ns#">
   <cc:Work>
    <dc:type rdf:resource="http://purl.org/dc/dcmitype/StillImage"/>
    <dc:date>2021-01-18T13:47:24.757215</dc:date>
    <dc:format>image/svg+xml</dc:format>
    <dc:creator>
     <cc:Agent>
      <dc:title>Matplotlib v3.3.3, https://matplotlib.org/</dc:title>
     </cc:Agent>
    </dc:creator>
   </cc:Work>
  </rdf:RDF>
 </metadata>
 <defs>
  <style type="text/css">*{stroke-linecap:butt;stroke-linejoin:round;}</style>
 </defs>
 <g id="figure_1">
  <g id="patch_1">
   <path d="M 0 345.6 
L 460.8 345.6 
L 460.8 0 
L 0 0 
z
" style="fill:#ffffff;"/>
  </g>
  <g id="axes_1">
   <g id="patch_2">
    <path d="M 57.6 307.584 
L 414.72 307.584 
L 414.72 41.472 
L 57.6 41.472 
z
" style="fill:#ffffff;"/>
   </g>
   <g id="matplotlib.axis_1">
    <g id="xtick_1">
     <g id="line2d_1">
      <defs>
       <path d="M 0 0 
L 0 3.5 
" id="m06cccefcc1" style="stroke:#000000;stroke-width:0.8;"/>
      </defs>
      <g>
       <use style="stroke:#000000;stroke-width:0.8;" x="73.832727" xlink:href="#m06cccefcc1" y="307.584"/>
      </g>
     </g>
     <g id="text_1">
      <!-- 5 -->
      <g transform="translate(70.900696 322.57775)scale(0.1 -0.1)">
       <defs>
        <path d="M 51.46875 23.34375 
Q 51.46875 12.25 44.109375 5.46875 
Q 36.765625 -1.3125 24.359375 -1.3125 
Q 13.71875 -1.3125 8.5 1.859375 
L 8.5 11.625 
Q 16.15625 6.640625 24.125 6.640625 
Q 32.03125 6.640625 36.890625 11 
Q 41.75 15.375 41.75 22.609375 
Q 41.75 29.828125 36.6875 33.859375 
Q 31.640625 37.890625 22.40625 37.890625 
Q 15.28125 37.890625 9.578125 37.25 
L 12.359375 75.640625 
L 47.703125 75.640625 
L 47.703125 67.234375 
L 20.40625 67.234375 
L 18.84375 45.796875 
L 25.734375 46.09375 
Q 37.75 46.09375 44.609375 40.109375 
Q 51.46875 34.125 51.46875 23.34375 
z
" id="MicrosoftYaHei-53"/>
       </defs>
       <use xlink:href="#MicrosoftYaHei-53"/>
      </g>
     </g>
    </g>
    <g id="xtick_2">
     <g id="line2d_2">
      <g>
       <use style="stroke:#000000;stroke-width:0.8;" x="138.763636" xlink:href="#m06cccefcc1" y="307.584"/>
      </g>
     </g>
     <g id="text_2">
      <!-- 10 -->
      <g transform="translate(132.899574 322.57775)scale(0.1 -0.1)">
       <defs>
        <path d="M 27.828125 0 
L 27.828125 64.703125 
Q 25.59375 62.453125 20.234375 59.671875 
Q 14.890625 56.890625 10.359375 55.765625 
L 10.359375 65.140625 
Q 16.359375 66.796875 23.1875 70.4375 
Q 30.03125 74.078125 33.6875 77.296875 
L 37.3125 77.296875 
L 37.3125 0 
z
" id="MicrosoftYaHei-49"/>
        <path d="M 4.4375 36.328125 
Q 4.4375 56.34375 11.078125 66.625 
Q 17.71875 76.90625 30.328125 76.90625 
Q 54.34375 76.90625 54.34375 38.140625 
Q 54.34375 19 47.578125 8.859375 
Q 40.828125 -1.265625 28.609375 -1.265625 
Q 17.09375 -1.265625 10.765625 8.34375 
Q 4.4375 17.96875 4.4375 36.328125 
z
M 14.203125 36.765625 
Q 14.203125 6.640625 29.5 6.640625 
Q 44.53125 6.640625 44.53125 37.25 
Q 44.53125 68.953125 29.78125 68.953125 
Q 14.203125 68.953125 14.203125 36.765625 
z
" id="MicrosoftYaHei-48"/>
       </defs>
       <use xlink:href="#MicrosoftYaHei-49"/>
       <use x="58.642578" xlink:href="#MicrosoftYaHei-48"/>
      </g>
     </g>
    </g>
    <g id="xtick_3">
     <g id="line2d_3">
      <g>
       <use style="stroke:#000000;stroke-width:0.8;" x="203.694545" xlink:href="#m06cccefcc1" y="307.584"/>
      </g>
     </g>
     <g id="text_3">
      <!-- 15 -->
      <g transform="translate(197.830483 322.57775)scale(0.1 -0.1)">
       <use xlink:href="#MicrosoftYaHei-49"/>
       <use x="58.642578" xlink:href="#MicrosoftYaHei-53"/>
      </g>
     </g>
    </g>
    <g id="xtick_4">
     <g id="line2d_4">
      <g>
       <use style="stroke:#000000;stroke-width:0.8;" x="268.625455" xlink:href="#m06cccefcc1" y="307.584"/>
      </g>
     </g>
     <g id="text_4">
      <!-- 20 -->
      <g transform="translate(262.761392 322.57775)scale(0.1 -0.1)">
       <defs>
        <path d="M 41.65625 55.8125 
Q 41.65625 61.921875 37.796875 65.40625 
Q 33.9375 68.890625 27.296875 68.890625 
Q 22.609375 68.890625 17.8125 66.5 
Q 13.03125 64.109375 8.890625 59.671875 
L 8.890625 68.953125 
Q 12.59375 72.796875 17.296875 74.84375 
Q 22.015625 76.90625 28.375 76.90625 
Q 38.625 76.90625 44.875 71.40625 
Q 51.125 65.921875 51.125 56.546875 
Q 51.125 48.1875 47.28125 42.078125 
Q 43.453125 35.984375 34.1875 29.59375 
Q 24.703125 23.046875 21.5 20.21875 
Q 18.3125 17.390625 17.03125 14.796875 
Q 15.765625 12.203125 15.765625 8.5 
L 53.375 8.5 
L 53.375 0 
L 5.8125 0 
L 5.8125 3.765625 
Q 5.8125 10.296875 7.59375 14.859375 
Q 9.375 19.4375 13.46875 23.75 
Q 17.578125 28.078125 26.265625 34.125 
Q 35.15625 40.375 38.40625 45.09375 
Q 41.65625 49.8125 41.65625 55.8125 
z
" id="MicrosoftYaHei-50"/>
       </defs>
       <use xlink:href="#MicrosoftYaHei-50"/>
       <use x="58.642578" xlink:href="#MicrosoftYaHei-48"/>
      </g>
     </g>
    </g>
    <g id="xtick_5">
     <g id="line2d_5">
      <g>
       <use style="stroke:#000000;stroke-width:0.8;" x="333.556364" xlink:href="#m06cccefcc1" y="307.584"/>
      </g>
     </g>
     <g id="text_5">
      <!-- 25 -->
      <g transform="translate(327.692301 322.57775)scale(0.1 -0.1)">
       <use xlink:href="#MicrosoftYaHei-50"/>
       <use x="58.642578" xlink:href="#MicrosoftYaHei-53"/>
      </g>
     </g>
    </g>
    <g id="xtick_6">
     <g id="line2d_6">
      <g>
       <use style="stroke:#000000;stroke-width:0.8;" x="398.487273" xlink:href="#m06cccefcc1" y="307.584"/>
      </g>
     </g>
     <g id="text_6">
      <!-- 30 -->
      <g transform="translate(392.62321 322.57775)scale(0.1 -0.1)">
       <defs>
        <path d="M 6.984375 12.640625 
Q 14.75 6.640625 24.515625 6.640625 
Q 32.328125 6.640625 36.890625 10.46875 
Q 41.453125 14.3125 41.453125 20.75 
Q 41.453125 35.109375 20.90625 35.109375 
L 14.59375 35.109375 
L 14.59375 43.015625 
L 20.609375 43.015625 
Q 38.8125 43.015625 38.8125 56.5 
Q 38.8125 68.953125 24.90625 68.953125 
Q 16.9375 68.953125 9.90625 63.578125 
L 9.90625 72.609375 
Q 17.328125 76.90625 27.25 76.90625 
Q 36.921875 76.90625 42.78125 71.84375 
Q 48.640625 66.796875 48.640625 58.734375 
Q 48.640625 43.890625 33.5 39.65625 
L 33.5 39.453125 
Q 41.703125 38.578125 46.453125 33.671875 
Q 51.21875 28.765625 51.21875 21.4375 
Q 51.21875 11.234375 43.875 4.984375 
Q 36.53125 -1.265625 24.3125 -1.265625 
Q 13.578125 -1.265625 6.984375 2.734375 
z
" id="MicrosoftYaHei-51"/>
       </defs>
       <use xlink:href="#MicrosoftYaHei-51"/>
       <use x="58.642578" xlink:href="#MicrosoftYaHei-48"/>
      </g>
     </g>
    </g>
   </g>
   <g id="matplotlib.axis_2">
    <g id="ytick_1">
     <g id="line2d_7">
      <defs>
       <path d="M 0 0 
L -3.5 0 
" id="ma06f32072e" style="stroke:#000000;stroke-width:0.8;"/>
      </defs>
      <g>
       <use style="stroke:#000000;stroke-width:0.8;" x="57.6" xlink:href="#ma06f32072e" y="284.694646"/>
      </g>
     </g>
     <g id="text_7">
      <!-- 22 -->
      <g transform="translate(38.871875 288.691521)scale(0.1 -0.1)">
       <use xlink:href="#MicrosoftYaHei-50"/>
       <use x="58.642578" xlink:href="#MicrosoftYaHei-50"/>
      </g>
     </g>
    </g>
    <g id="ytick_2">
     <g id="line2d_8">
      <g>
       <use style="stroke:#000000;stroke-width:0.8;" x="57.6" xlink:href="#ma06f32072e" y="240.218585"/>
      </g>
     </g>
     <g id="text_8">
      <!-- 23 -->
      <g transform="translate(38.871875 244.21546)scale(0.1 -0.1)">
       <use xlink:href="#MicrosoftYaHei-50"/>
       <use x="58.642578" xlink:href="#MicrosoftYaHei-51"/>
      </g>
     </g>
    </g>
    <g id="ytick_3">
     <g id="line2d_9">
      <g>
       <use style="stroke:#000000;stroke-width:0.8;" x="57.6" xlink:href="#ma06f32072e" y="195.742523"/>
      </g>
     </g>
     <g id="text_9">
      <!-- 24 -->
      <g transform="translate(38.871875 199.739398)scale(0.1 -0.1)">
       <defs>
        <path d="M 45.40625 75.640625 
L 45.40625 25.6875 
L 56.734375 25.6875 
L 56.734375 17.78125 
L 45.40625 17.78125 
L 45.40625 0 
L 36.140625 0 
L 36.140625 17.78125 
L 0.828125 17.78125 
L 0.828125 25.25 
Q 10.25 35.84375 19.765625 49.65625 
Q 29.296875 63.484375 35.5 75.640625 
z
M 11.578125 25.6875 
L 36.140625 25.6875 
L 36.140625 61.71875 
Q 31.0625 52.59375 25.25 44.015625 
Q 19.4375 35.453125 11.578125 25.6875 
z
" id="MicrosoftYaHei-52"/>
       </defs>
       <use xlink:href="#MicrosoftYaHei-50"/>
       <use x="58.642578" xlink:href="#MicrosoftYaHei-52"/>
      </g>
     </g>
    </g>
    <g id="ytick_4">
     <g id="line2d_10">
      <g>
       <use style="stroke:#000000;stroke-width:0.8;" x="57.6" xlink:href="#ma06f32072e" y="151.266462"/>
      </g>
     </g>
     <g id="text_10">
      <!-- 25 -->
      <g transform="translate(38.871875 155.263337)scale(0.1 -0.1)">
       <use xlink:href="#MicrosoftYaHei-50"/>
       <use x="58.642578" xlink:href="#MicrosoftYaHei-53"/>
      </g>
     </g>
    </g>
    <g id="ytick_5">
     <g id="line2d_11">
      <g>
       <use style="stroke:#000000;stroke-width:0.8;" x="57.6" xlink:href="#ma06f32072e" y="106.7904"/>
      </g>
     </g>
     <g id="text_11">
      <!-- 26 -->
      <g transform="translate(38.871875 110.787275)scale(0.1 -0.1)">
       <defs>
        <path d="M 49.703125 65.921875 
Q 43.796875 68.953125 37.359375 68.953125 
Q 27.546875 68.953125 21.578125 60.40625 
Q 15.625 51.859375 15.53125 37.0625 
L 15.765625 37.0625 
Q 21.140625 47.46875 32.90625 47.46875 
Q 42.71875 47.46875 48.578125 41.0625 
Q 54.4375 34.671875 54.4375 24.078125 
Q 54.4375 12.984375 47.671875 5.859375 
Q 40.921875 -1.265625 30.421875 -1.265625 
Q 18.890625 -1.265625 12.328125 7.734375 
Q 5.765625 16.75 5.765625 33.296875 
Q 5.765625 53.328125 14.375 65.109375 
Q 23 76.90625 37.0625 76.90625 
Q 45.125 76.90625 49.703125 74.703125 
z
M 16.109375 24.75 
Q 16.109375 17.28125 20.09375 11.953125 
Q 24.078125 6.640625 30.671875 6.640625 
Q 36.921875 6.640625 40.828125 11.234375 
Q 44.734375 15.828125 44.734375 23.046875 
Q 44.734375 30.859375 41.046875 35.203125 
Q 37.359375 39.546875 30.5625 39.546875 
Q 24.125 39.546875 20.109375 35.15625 
Q 16.109375 30.765625 16.109375 24.75 
z
" id="MicrosoftYaHei-54"/>
       </defs>
       <use xlink:href="#MicrosoftYaHei-50"/>
       <use x="58.642578" xlink:href="#MicrosoftYaHei-54"/>
      </g>
     </g>
    </g>
    <g id="ytick_6">
     <g id="line2d_12">
      <g>
       <use style="stroke:#000000;stroke-width:0.8;" x="57.6" xlink:href="#ma06f32072e" y="62.314338"/>
      </g>
     </g>
     <g id="text_12">
      <!-- 27 -->
      <g transform="translate(38.871875 66.311213)scale(0.1 -0.1)">
       <defs>
        <path d="M 53.46875 69.734375 
Q 41.546875 48.921875 34.734375 31.21875 
Q 27.9375 13.53125 26.3125 0 
L 16.359375 0 
Q 18.171875 13.328125 24.90625 30.421875 
Q 31.640625 47.515625 42.921875 67.1875 
L 5.421875 67.1875 
L 5.421875 75.640625 
L 53.46875 75.640625 
z
" id="MicrosoftYaHei-55"/>
       </defs>
       <use xlink:href="#MicrosoftYaHei-50"/>
       <use x="58.642578" xlink:href="#MicrosoftYaHei-55"/>
      </g>
     </g>
    </g>
   </g>
   <g id="line2d_13">
    <path clip-path="url(#p60a78df9c2)" d="M 73.832727 295.488 
L 138.763636 53.568 
L 203.694545 276.878769 
L 268.625455 258.269538 
L 333.556364 295.488 
L 398.487273 258.269538 
" style="fill:none;stroke:#1f77b4;stroke-linecap:square;stroke-width:1.5;"/>
   </g>
   <g id="line2d_14">
    <path clip-path="url(#p60a78df9c2)" d="M 73.832727 146.614154 
L 138.763636 146.614154 
L 203.694545 146.614154 
L 268.625455 146.614154 
L 333.556364 146.614154 
L 398.487273 146.614154 
" style="fill:none;stroke:#ff7f0e;stroke-linecap:square;stroke-width:1.5;"/>
   </g>
   <g id="patch_3">
    <path d="M 57.6 307.584 
L 57.6 41.472 
" style="fill:none;stroke:#000000;stroke-linecap:square;stroke-linejoin:miter;stroke-width:0.8;"/>
   </g>
   <g id="patch_4">
    <path d="M 414.72 307.584 
L 414.72 41.472 
" style="fill:none;stroke:#000000;stroke-linecap:square;stroke-linejoin:miter;stroke-width:0.8;"/>
   </g>
   <g id="patch_5">
    <path d="M 57.6 307.584 
L 414.72 307.584 
" style="fill:none;stroke:#000000;stroke-linecap:square;stroke-linejoin:miter;stroke-width:0.8;"/>
   </g>
   <g id="patch_6">
    <path d="M 57.6 41.472 
L 414.72 41.472 
" style="fill:none;stroke:#000000;stroke-linecap:square;stroke-linejoin:miter;stroke-width:0.8;"/>
   </g>
   <g id="legend_1">
    <g id="patch_7">
     <path d="M 275.72 80.431375 
L 407.72 80.431375 
Q 409.72 80.431375 409.72 78.431375 
L 409.72 48.472 
Q 409.72 46.472 407.72 46.472 
L 275.72 46.472 
Q 273.72 46.472 273.72 48.472 
L 273.72 78.431375 
Q 273.72 80.431375 275.72 80.431375 
z
" style="fill:#ffffff;opacity:0.8;stroke:#cccccc;stroke-linejoin:miter;"/>
    </g>
    <g id="line2d_15">
     <path d="M 277.72 54.96575 
L 297.72 54.96575 
" style="fill:none;stroke:#1f77b4;stroke-linecap:square;stroke-width:1.5;"/>
    </g>
    <g id="line2d_16"/>
    <g id="text_13">
     <!-- 随机森林测试集准确度 -->
     <g transform="translate(305.72 58.46575)scale(0.1 -0.1)">
      <defs>
       <path d="M 50.875 72.515625 
L 64.5 72.515625 
Q 66.359375 77.546875 67.671875 82.671875 
L 74.3125 80.8125 
Q 72.859375 76.515625 71.296875 72.515625 
L 96.578125 72.515625 
L 96.578125 66.0625 
L 68.703125 66.0625 
Q 66.65625 61.1875 64.40625 56.6875 
L 90.53125 56.6875 
L 90.53125 12.359375 
Q 90.53125 2.09375 80.5625 2.09375 
L 71.390625 2.09375 
Q 71.296875 2.78125 70.015625 9.328125 
Q 75.59375 9.03125 79 9.03125 
Q 83.890625 9.03125 83.890625 13.921875 
L 83.890625 20.75 
L 64.265625 20.75 
L 64.265625 1.90625 
L 57.625 1.90625 
L 57.625 44.390625 
Q 54.046875 38.671875 50.203125 33.640625 
Q 48.734375 37.453125 47.171875 40.578125 
Q 56.25 53.03125 61.921875 66.0625 
L 50.875 66.0625 
z
M 32.515625 28.265625 
Q 34.765625 10.40625 23.921875 7.953125 
Q 20.703125 7.28125 15.140625 7.859375 
Q 14.453125 10.890625 13.1875 15.484375 
Q 18.171875 14.3125 21.484375 14.796875 
Q 27.4375 15.765625 25.390625 28.265625 
Q 23.921875 35.015625 16.796875 43.3125 
Q 20.703125 55.90625 24.421875 69.671875 
L 12.984375 69.671875 
L 12.984375 -12.640625 
L 6.0625 -12.640625 
L 6.0625 76.703125 
L 31.640625 76.703125 
L 31.640625 69.671875 
Q 27.9375 56.984375 24.21875 44.578125 
Q 30.859375 36.859375 32.515625 28.265625 
z
M 62.015625 -2.6875 
Q 73.25 -3.171875 97.5625 -2.390625 
Q 96 -6.390625 94.734375 -10.109375 
Q 74.421875 -10.5 61.8125 -9.71875 
Q 47.953125 -9.125 40.625 1.21875 
Q 35.546875 -5.71875 31.0625 -13.03125 
L 26.265625 -6.984375 
Q 29.546875 -2.046875 38.1875 8.9375 
L 38.1875 42.328125 
L 30.28125 42.328125 
L 30.28125 48.96875 
L 45.015625 48.96875 
L 45.015625 6.296875 
Q 50.984375 -2.4375 62.015625 -2.6875 
z
M 64.265625 26.8125 
L 83.890625 26.8125 
L 83.890625 35.59375 
L 64.265625 35.59375 
z
M 83.890625 50.4375 
L 64.265625 50.4375 
L 64.265625 41.65625 
L 83.890625 41.65625 
z
M 40.234375 82.078125 
Q 45.015625 70.171875 47.5625 61.859375 
Q 43.65625 60.59375 40.71875 59.328125 
Q 38.28125 68.40625 34.078125 79.9375 
z
" id="MicrosoftYaHei-38543"/>
       <path d="M 52.734375 69.28125 
L 52.734375 36.96875 
Q 52.734375 2 35.25 -13.71875 
Q 32.515625 -10.40625 29.5 -7.078125 
Q 44.921875 6.5 44.921875 35.203125 
L 44.921875 76.703125 
L 81.25 76.703125 
L 81.25 3.265625 
Q 81.25 -1.609375 84.671875 -1.609375 
L 86.921875 -1.609375 
Q 90.046875 -1.609375 90.921875 3.859375 
Q 91.890625 11.375 92.28125 20.0625 
Q 95.703125 18.40625 99.703125 16.9375 
Q 98.828125 7.28125 97.953125 1.125 
Q 96.390625 -9.234375 87.984375 -9.234375 
L 82.8125 -9.234375 
Q 73.4375 -9.234375 73.4375 1.90625 
L 73.4375 69.28125 
z
M 1.265625 21.921875 
Q 12.203125 38.234375 16.84375 57.078125 
L 2.25 57.078125 
L 2.25 63.71875 
L 17.484375 63.71875 
L 17.484375 82.953125 
L 24.515625 82.953125 
L 24.515625 63.71875 
L 38.1875 63.71875 
L 38.1875 57.078125 
L 24.515625 57.078125 
L 24.515625 40.875 
L 28.421875 44.78125 
Q 35.9375 37.9375 40.234375 33.640625 
L 34.96875 28.265625 
Q 28.953125 34.90625 24.515625 39.3125 
L 24.515625 -12.25 
L 17.484375 -12.25 
L 17.484375 40.09375 
Q 12.25 23.53125 4.5 13.328125 
Q 2.9375 17.71875 1.265625 21.921875 
z
" id="MicrosoftYaHei-26426"/>
       <path d="M 6.84375 70.65625 
L 46.484375 70.65625 
L 46.484375 82.953125 
L 53.421875 82.953125 
L 53.421875 70.65625 
L 93.5625 70.65625 
L 93.5625 64.203125 
L 57.234375 64.203125 
Q 75.09375 51.515625 98.53125 48.390625 
Q 96 44.96875 94.046875 41.359375 
Q 69.53125 47.515625 53.421875 61.46875 
L 53.421875 39.40625 
L 46.484375 39.40625 
L 46.484375 60.984375 
Q 27.734375 46.828125 5.859375 40.09375 
Q 4 43.703125 1.375 46.921875 
Q 24.21875 52 42.671875 64.203125 
L 6.84375 64.203125 
z
M 98.734375 3.171875 
Q 96.09375 0.140625 94.140625 -3.265625 
Q 81.453125 5.03125 73.140625 19.09375 
L 73.140625 -13.234375 
L 66.3125 -13.234375 
L 66.3125 18.890625 
Q 57.625 4.734375 45.21875 -4.34375 
Q 43.265625 -1.8125 39.9375 1.03125 
Q 54.984375 10.5 65.4375 25.640625 
L 50 25.640625 
L 50 31.890625 
L 66.3125 31.890625 
L 66.3125 43.5 
L 73.140625 43.5 
L 73.140625 31.890625 
L 94.140625 31.890625 
L 94.140625 25.640625 
L 73.640625 25.640625 
Q 84.96875 10.015625 98.734375 3.171875 
z
M 0.78125 1.3125 
Q 12.59375 10.203125 22.859375 25.640625 
L 4.6875 25.640625 
L 4.6875 31.890625 
L 23.34375 31.890625 
L 23.34375 43.796875 
L 30.171875 43.796875 
L 30.171875 31.890625 
L 46.6875 31.890625 
L 46.6875 25.640625 
L 30.171875 25.640625 
L 30.171875 19.390625 
L 32.328125 21.921875 
Q 42.390625 14.59375 46.875 10.59375 
L 42.390625 5.71875 
Q 37.984375 10.109375 30.171875 16.15625 
L 30.171875 -13.234375 
L 23.34375 -13.234375 
L 23.34375 17.4375 
Q 16.015625 5.03125 5.5625 -4.25 
Q 2.9375 -0.734375 0.78125 1.3125 
z
" id="MicrosoftYaHei-26862"/>
       <path d="M 44.234375 62.453125 
L 63.09375 62.453125 
L 63.09375 82.171875 
L 70.609375 82.171875 
L 70.609375 62.453125 
L 95.015625 62.453125 
L 95.015625 55.515625 
L 71.578125 55.515625 
Q 81.0625 27.484375 99.3125 9.71875 
Q 95.703125 6.390625 92.78125 2.78125 
Q 79.5 18.796875 70.609375 44.578125 
L 70.609375 -12.9375 
L 63.09375 -12.9375 
L 63.09375 44.671875 
Q 53.21875 18.609375 39.453125 2.296875 
Q 36.53125 5.03125 33.015625 7.859375 
Q 51.171875 27 61.921875 55.515625 
L 44.234375 55.515625 
z
M 1.375 19 
Q 12.203125 36.1875 17.78125 55.90625 
L 2.734375 55.90625 
L 2.734375 62.75 
L 18.453125 62.75 
L 18.453125 82.171875 
L 25.875 82.171875 
L 25.875 62.75 
L 39.84375 62.75 
L 39.84375 55.90625 
L 25.875 55.90625 
L 25.875 44.1875 
L 28.90625 47.015625 
Q 38.1875 37.84375 44.53125 30.421875 
L 38.96875 25.4375 
Q 34.1875 31.59375 25.875 40.765625 
L 25.875 -12.9375 
L 18.453125 -12.9375 
L 18.453125 40.765625 
Q 12.984375 22.609375 4.984375 9.71875 
Q 3.8125 13.234375 1.375 19 
z
" id="MicrosoftYaHei-26519"/>
       <path d="M 13.671875 27.390625 
Q 18.359375 24.953125 21.390625 23.78125 
Q 14.84375 -0.640625 11.921875 -12.25 
L 3.90625 -8.546875 
Q 9.671875 7.765625 13.671875 27.390625 
z
M 9.96875 80.71875 
Q 15.921875 75.734375 24.8125 67.234375 
Q 21.578125 64.109375 18.953125 61.375 
Q 11.8125 69.28125 4.890625 75.828125 
z
M 5.5625 55.609375 
Q 13.765625 48.96875 21.09375 42.4375 
Q 18.5625 39.796875 15.4375 36.28125 
Q 6.640625 44.96875 0.78125 50.25 
z
M 87.109375 82.5625 
L 94.234375 82.5625 
L 94.234375 -0.53125 
Q 94.234375 -11.765625 83.40625 -11.765625 
Q 78.71875 -11.765625 72.265625 -11.578125 
Q 71.875 -7.953125 70.90625 -3.5625 
Q 77.15625 -4.25 81.546875 -4.25 
Q 87.109375 -4.25 87.109375 1.3125 
z
M 78.71875 9.90625 
L 71.875 9.90625 
L 71.875 74.65625 
L 78.71875 74.65625 
z
M 26.65625 77.203125 
L 63.484375 77.203125 
L 63.484375 15.484375 
L 56.453125 15.484375 
L 56.453125 70.359375 
L 33.6875 70.359375 
L 33.6875 15.484375 
L 26.65625 15.484375 
z
M 41.890625 61.96875 
L 49.03125 61.96875 
L 49.03125 37.75 
Q 49.03125 22.90625 46.296875 13.921875 
Q 58.984375 4.15625 68.359375 -3.65625 
L 63.09375 -9.625 
Q 55.28125 -2.203125 43.75 7.375 
Q 37.703125 -4.640625 21.96875 -13.8125 
Q 19.828125 -10.6875 17.1875 -7.5625 
Q 31.734375 0.828125 37.109375 11.078125 
Q 41.890625 19.96875 41.890625 37.546875 
z
" id="MicrosoftYaHei-27979"/>
       <path d="M 29.890625 63.71875 
L 65.53125 63.71875 
Q 65.4375 72.75 65.4375 83.34375 
L 73.140625 83.34375 
Q 72.953125 71.734375 73.046875 63.71875 
L 97.171875 63.71875 
L 97.171875 56.59375 
L 73.1875 56.59375 
Q 74.171875 15.28125 82.421875 0.34375 
Q 85.453125 -4.734375 87.5 -4.734375 
Q 89.15625 -4.734375 89.84375 -0.828125 
Q 90.828125 5.125 91.3125 14.703125 
Q 95.515625 13.03125 98.640625 12.15625 
Q 97.359375 1.125 96.1875 -4.640625 
Q 94.625 -12.84375 87.984375 -12.84375 
Q 82.515625 -12.84375 77.15625 -5.328125 
Q 67.1875 9.125 65.71875 56.59375 
L 29.890625 56.59375 
z
M 28.125 1.03125 
Q 35.5 2 43.5625 3.265625 
L 43.5625 33.546875 
L 29.59375 33.546875 
L 29.59375 40.484375 
L 63.375 40.484375 
L 63.375 33.546875 
L 50.78125 33.546875 
L 50.78125 4.390625 
Q 58.453125 5.671875 66.703125 7.171875 
Q 66.5 3.265625 66.5 -0.4375 
Q 45.125 -3.859375 30.078125 -6.59375 
z
M 31.84375 20.84375 
Q 32.328125 15.375 32.90625 11.375 
Q 26.375 5.125 19.828125 -1.609375 
Q 16.796875 -4.734375 14.75 -7.5625 
L 9.28125 -1.3125 
Q 12.703125 2.484375 12.703125 8.0625 
L 12.703125 44 
L 1.375 44 
L 1.375 50.921875 
L 20.125 50.921875 
L 20.125 8.9375 
Q 25.390625 14.015625 31.84375 20.84375 
z
M 10.9375 80.8125 
Q 19.734375 72.21875 26.375 64.59375 
L 19.921875 59.03125 
Q 13.765625 67.140625 5.375 75.828125 
z
M 76.859375 76.515625 
L 81.34375 81.203125 
Q 89.15625 75.4375 93.75 71.046875 
L 88.375 65.578125 
Q 83.015625 71.34375 76.859375 76.515625 
z
" id="MicrosoftYaHei-35797"/>
       <path d="M 47.75 80.21875 
L 53.515625 83.734375 
Q 58.109375 78.65625 61.03125 73.78125 
L 56.546875 70.953125 
L 93.953125 70.953125 
L 93.953125 64.890625 
L 56.9375 64.890625 
L 56.9375 57.953125 
L 89.65625 57.953125 
L 89.65625 52.296875 
L 56.9375 52.296875 
L 56.9375 45.359375 
L 89.65625 45.359375 
L 89.65625 39.703125 
L 56.9375 39.703125 
L 56.9375 32.5625 
L 94.234375 32.5625 
L 94.234375 26.515625 
L 23.046875 26.515625 
L 23.046875 22.796875 
L 16.21875 22.796875 
L 16.21875 57.5625 
Q 11.1875 51.703125 5.953125 47.015625 
Q 4.390625 49.859375 1.265625 53.46875 
Q 15.4375 65.28125 25.203125 82.5625 
L 31.9375 79.546875 
Q 29.203125 75.046875 26.375 70.953125 
L 54 70.953125 
Q 51.375 75.390625 47.75 80.21875 
z
M 4.5 17.828125 
L 46.578125 17.828125 
L 46.578125 24.46875 
L 53.421875 24.46875 
L 53.421875 17.828125 
L 95.40625 17.828125 
L 95.40625 11.578125 
L 61.03125 11.578125 
Q 78.125 -0.484375 99.03125 -4.734375 
Q 96.390625 -8.84375 94.4375 -11.96875 
Q 70.609375 -5.078125 53.421875 9.859375 
L 53.421875 -13.03125 
L 46.578125 -13.03125 
L 46.578125 9.96875 
Q 28.8125 -4.890625 5.5625 -12.15625 
Q 3.515625 -9.125 0.984375 -6 
Q 21.96875 -0.875 38.671875 11.578125 
L 4.5 11.578125 
z
M 23.046875 32.5625 
L 50.09375 32.5625 
L 50.09375 39.703125 
L 23.046875 39.703125 
z
M 23.046875 45.359375 
L 50.09375 45.359375 
L 50.09375 52.296875 
L 23.046875 52.296875 
z
M 23.046875 57.953125 
L 50.09375 57.953125 
L 50.09375 64.890625 
L 23.046875 64.890625 
z
" id="MicrosoftYaHei-38598"/>
       <path d="M 22.078125 43.21875 
Q 36.140625 60.40625 44.828125 83.34375 
L 52.046875 80.8125 
Q 48.875 73.34375 45.40625 66.453125 
L 96.78125 66.453125 
L 96.78125 59.71875 
L 73.046875 59.71875 
L 73.046875 45.171875 
L 94.140625 45.171875 
L 94.140625 38.421875 
L 73.046875 38.421875 
L 73.046875 23.875 
L 94.34375 23.875 
L 94.34375 17.140625 
L 73.046875 17.140625 
L 73.046875 1.21875 
L 98.046875 1.21875 
L 98.046875 -5.328125 
L 43.265625 -5.328125 
L 43.265625 -13.140625 
L 35.640625 -13.140625 
L 35.640625 48.921875 
Q 31.78125 42.78125 27.640625 37.25 
Q 25.484375 40.28125 22.078125 43.21875 
z
M 43.265625 1.21875 
L 65.4375 1.21875 
L 65.4375 17.140625 
L 43.265625 17.140625 
z
M 16.890625 37.84375 
Q 20.703125 35.796875 24.3125 34.515625 
Q 17.390625 14.3125 10.640625 -5.8125 
L 2.640625 -2.203125 
Q 10.15625 15.671875 16.890625 37.84375 
z
M 43.265625 23.875 
L 65.4375 23.875 
L 65.4375 38.421875 
L 43.265625 38.421875 
z
M 43.265625 45.171875 
L 65.4375 45.171875 
L 65.4375 59.71875 
L 43.265625 59.71875 
z
M 8.296875 77.984375 
Q 16.40625 68.5 24.703125 57.953125 
Q 24.03125 57.46875 17.96875 52.203125 
Q 10.640625 62.453125 2.15625 73 
z
M 61.234375 79.9375 
L 67.578125 83.9375 
Q 71.390625 79.25 76.265625 72.21875 
L 69.53125 67.71875 
Q 64.9375 74.75 61.234375 79.9375 
z
" id="MicrosoftYaHei-20934"/>
       <path d="M 32.421875 53.953125 
Q 46.1875 67.71875 54 83.734375 
L 61.421875 82.375 
Q 59.078125 77.984375 56.546875 73.78125 
L 84.96875 73.78125 
L 84.96875 67.625 
L 76.703125 57.28125 
L 94.734375 57.28125 
L 94.734375 -0.828125 
Q 94.734375 -11.375 85.546875 -11.375 
Q 80.375 -11.375 76.65625 -11.1875 
Q 76.078125 -7.765625 75.203125 -4.046875 
Q 80.5625 -4.546875 83.296875 -4.546875 
Q 87.796875 -4.546875 87.796875 0.25 
L 87.796875 11.46875 
L 71.6875 11.46875 
L 71.6875 -10.296875 
L 64.75 -10.296875 
L 64.75 11.46875 
L 48.640625 11.46875 
Q 46 -4.109375 38.1875 -13.8125 
Q 35.75 -10.984375 32.515625 -7.953125 
Q 43.0625 4.546875 43.0625 28.765625 
L 43.0625 54.78125 
Q 40.578125 51.8125 37.984375 48.96875 
Q 35.640625 51.21875 32.421875 53.953125 
z
M 0.484375 26.421875 
Q 11.578125 44.28125 16.65625 67.046875 
L 3.609375 67.046875 
L 3.609375 73.6875 
L 38.578125 73.6875 
L 38.578125 67.046875 
L 23.578125 67.046875 
Q 21.1875 56.453125 17.625 46.734375 
L 34.375 46.734375 
L 34.375 2 
L 17.96875 2 
L 17.96875 -5.421875 
L 11.53125 -5.421875 
L 11.53125 32.171875 
Q 8.734375 26.421875 5.46875 21.046875 
Q 3.515625 23.390625 0.484375 26.421875 
z
M 27.9375 8.453125 
L 27.9375 40.28125 
L 17.96875 40.28125 
L 17.96875 8.453125 
z
M 76.171875 67.53125 
L 52.59375 67.53125 
Q 49.03125 62.203125 45.0625 57.28125 
L 68.5 57.28125 
z
M 71.6875 17.71875 
L 87.796875 17.71875 
L 87.796875 31.109375 
L 71.6875 31.109375 
z
M 87.796875 50.640625 
L 71.6875 50.640625 
L 71.6875 37.359375 
L 87.796875 37.359375 
z
M 49.46875 17.71875 
L 64.75 17.71875 
L 64.75 31.109375 
L 50 31.109375 
Q 50 28.765625 49.46875 17.71875 
z
M 50 37.359375 
L 64.75 37.359375 
L 64.75 50.640625 
L 50 50.640625 
z
" id="MicrosoftYaHei-30830"/>
       <path d="M 24.21875 19 
L 24.21875 25.4375 
L 85.453125 25.4375 
L 85.453125 19.09375 
Q 76.609375 9.578125 64.796875 2.546875 
Q 78.90625 -3.125 97.859375 -4.828125 
L 94.046875 -12.453125 
Q 72.265625 -9.421875 56.9375 -1.703125 
Q 40.625 -9.671875 19.53125 -13.53125 
Q 17.96875 -10.40625 15.53125 -6.5 
Q 34.859375 -3.46875 49.46875 2.59375 
Q 39.015625 9.375 32.28125 19 
z
M 21.296875 55.328125 
L 35.84375 55.328125 
L 35.84375 63.53125 
L 43.265625 63.53125 
L 43.265625 55.328125 
L 70.90625 55.328125 
L 70.90625 63.625 
L 78.328125 63.625 
L 78.328125 55.328125 
L 96.09375 55.328125 
L 96.09375 48.875 
L 78.328125 48.875 
L 78.328125 30.125 
L 70.90625 30.125 
L 70.90625 33.546875 
L 43.265625 33.546875 
L 43.265625 30.03125 
L 35.84375 30.03125 
L 35.84375 48.875 
L 21.296875 48.875 
z
M 47.265625 80.8125 
L 54.390625 84.234375 
Q 57.71875 79 61.078125 72.40625 
L 97.078125 72.40625 
L 97.078125 65.578125 
L 19.140625 65.578125 
L 19.140625 36.1875 
Q 19.140625 2.78125 6.15625 -13.625 
Q 3.71875 -10.40625 0.59375 -6.984375 
Q 11.328125 6.203125 11.53125 36.671875 
L 11.53125 72.40625 
L 52.046875 72.40625 
Q 49.8125 76.703125 47.265625 80.8125 
z
M 43.265625 39.796875 
L 70.90625 39.796875 
L 70.90625 48.875 
L 43.265625 48.875 
z
M 75.296875 19 
L 40.4375 19 
Q 47.359375 11.375 57.125 6.109375 
Q 67.71875 11.578125 75.296875 19 
z
" id="MicrosoftYaHei-24230"/>
      </defs>
      <use xlink:href="#MicrosoftYaHei-38543"/>
      <use x="100" xlink:href="#MicrosoftYaHei-26426"/>
      <use x="200" xlink:href="#MicrosoftYaHei-26862"/>
      <use x="300" xlink:href="#MicrosoftYaHei-26519"/>
      <use x="400" xlink:href="#MicrosoftYaHei-27979"/>
      <use x="500" xlink:href="#MicrosoftYaHei-35797"/>
      <use x="600" xlink:href="#MicrosoftYaHei-38598"/>
      <use x="700" xlink:href="#MicrosoftYaHei-20934"/>
      <use x="800" xlink:href="#MicrosoftYaHei-30830"/>
      <use x="900" xlink:href="#MicrosoftYaHei-24230"/>
     </g>
    </g>
    <g id="line2d_17">
     <path d="M 277.72 70.445438 
L 297.72 70.445438 
" style="fill:none;stroke:#ff7f0e;stroke-linecap:square;stroke-width:1.5;"/>
    </g>
    <g id="line2d_18"/>
    <g id="text_14">
     <!-- 决策树测试集准确度 -->
     <g transform="translate(305.72 73.945438)scale(0.1 -0.1)">
      <defs>
       <path d="M 26.375 35.203125 
L 53.03125 35.203125 
Q 53.90625 43.796875 54 58.0625 
L 32.03125 58.0625 
L 32.03125 65.09375 
L 54.046875 65.09375 
Q 54.203125 73.78125 54.203125 82.5625 
L 61.921875 82.5625 
Q 61.921875 73.875 61.765625 65.09375 
L 86.8125 65.09375 
L 86.8125 35.203125 
L 98.4375 35.203125 
L 98.4375 28.171875 
L 62.453125 28.171875 
Q 71.296875 5.859375 96.875 -3.765625 
Q 92.96875 -8.0625 90.140625 -11.578125 
Q 66.75 0.34375 57.8125 21.734375 
Q 51.8125 0.09375 25.78125 -13.328125 
Q 23.828125 -10.40625 20.21875 -5.90625 
Q 47.75 7.171875 52 28.171875 
L 26.375 28.171875 
z
M 79.296875 58.0625 
L 61.671875 58.0625 
Q 61.53125 44.4375 60.796875 35.203125 
L 79.296875 35.203125 
z
M 15.828125 40.28125 
Q 19.4375 37.75 23.53125 35.796875 
Q 15.4375 13.140625 9.578125 -5.21875 
L 1.65625 -0.921875 
Q 9.375 16.75 15.828125 40.28125 
z
M 9.078125 77.09375 
Q 18.75 67.4375 26.171875 59.125 
L 19.53125 53.078125 
Q 11.625 63.234375 3.328125 71.921875 
z
" id="MicrosoftYaHei-20915"/>
       <path d="M 98.53125 -2 
Q 95.21875 -6.203125 93.265625 -9.234375 
Q 66.9375 1.90625 53.71875 16.703125 
L 53.71875 -13.140625 
L 46.484375 -13.140625 
L 46.484375 16.453125 
Q 29.59375 0.09375 6.453125 -10.40625 
Q 3.90625 -6.984375 1.375 -4.25 
Q 26.703125 5.71875 46.484375 25.34375 
L 46.484375 31.78125 
L 19.828125 31.78125 
L 19.828125 12.9375 
L 12.703125 12.9375 
L 12.703125 37.84375 
L 46.484375 37.84375 
L 46.484375 45.75 
L 4.109375 45.75 
L 4.109375 51.90625 
L 46.484375 51.90625 
L 46.484375 57.859375 
L 53.71875 57.859375 
L 53.71875 51.90625 
L 96.1875 51.90625 
L 96.1875 45.75 
L 53.71875 45.75 
L 53.71875 37.84375 
L 89.15625 37.84375 
L 89.15625 21.921875 
Q 89.15625 12.25 79.203125 12.25 
Q 75.203125 12.25 70.515625 12.546875 
Q 70.125 16.359375 69.34375 19.875 
Q 74.421875 19.09375 77.34375 19.09375 
Q 82.03125 19.09375 82.03125 23.6875 
L 82.03125 31.78125 
L 53.71875 31.78125 
L 53.71875 25.390625 
Q 72.171875 5.8125 98.53125 -2 
z
M 20.21875 83.546875 
L 28.609375 83.546875 
Q 26.375 78.765625 23.640625 74.359375 
L 51.953125 74.359375 
L 51.953125 68.3125 
L 19.4375 68.3125 
Q 13.671875 60.59375 6.0625 54.046875 
Q 4.109375 56.390625 1.171875 59.328125 
Q 13.375 69.1875 20.21875 83.546875 
z
M 62.59375 83.546875 
L 70.515625 83.546875 
Q 68.359375 78.609375 66.109375 74.359375 
L 97.265625 74.359375 
L 97.265625 68.3125 
L 62.703125 68.3125 
Q 59.03125 62.203125 55.078125 57.765625 
Q 52.9375 59.328125 48.25 61.46875 
Q 57.234375 71.140625 62.59375 83.546875 
z
M 74.703125 53.375 
Q 72.5625 56.6875 66.609375 63.625 
L 71.6875 67.234375 
Q 76.859375 62.359375 80.46875 57.765625 
z
M 31.0625 53.375 
Q 27.34375 58.25 22.953125 63.328125 
L 28.03125 66.9375 
Q 32.71875 62.453125 36.8125 57.765625 
z
" id="MicrosoftYaHei-31574"/>
       <path d="M 38.484375 54.15625 
Q 44 44.875 49.171875 36.078125 
Q 53.953125 49.65625 55.171875 65.875 
L 32.125 65.875 
L 32.125 72.90625 
L 62.703125 72.90625 
L 62.703125 66.453125 
Q 60.59375 45.125 53.8125 28.171875 
Q 60.75 16.265625 67 5.21875 
L 60.15625 0.828125 
Q 55.125 10.5 50.046875 19.875 
Q 42.625 5.125 31.15625 -5.8125 
Q 29.390625 -2.875 26.5625 1.03125 
Q 38.671875 12.5 45.75 27.6875 
Q 39.265625 39.40625 32.625 50.53125 
z
M 0.78125 21.234375 
Q 9.671875 36.03125 14.453125 56.5 
L 2.25 56.5 
L 2.25 63.140625 
L 15.046875 63.140625 
L 15.046875 83.0625 
L 22.078125 83.0625 
L 22.078125 63.140625 
L 32.625 63.140625 
L 32.625 56.5 
L 22.078125 56.5 
L 22.078125 41.015625 
L 25.6875 44.390625 
Q 30.859375 39.5 35.546875 34.515625 
L 30.671875 29.828125 
Q 26.65625 34.859375 22.078125 39.5 
L 22.078125 -13.234375 
L 15.046875 -13.234375 
L 15.046875 39.75 
Q 10.15625 22.515625 3.8125 12.75 
Q 2.640625 16.9375 0.78125 21.234375 
z
M 64.453125 62.546875 
L 82.234375 62.546875 
L 82.234375 82.5625 
L 89.453125 82.5625 
L 89.453125 62.546875 
L 98.734375 62.546875 
L 98.734375 55.71875 
L 89.453125 55.71875 
L 89.453125 0.828125 
Q 89.453125 -11.28125 77.546875 -11.28125 
Q 74.03125 -11.28125 67.09375 -11.1875 
Q 66.703125 -7.765625 65.625 -3.171875 
Q 72.078125 -3.859375 76.078125 -3.859375 
Q 82.234375 -3.859375 82.234375 1.703125 
L 82.234375 55.71875 
L 64.453125 55.71875 
z
M 61.71875 42.921875 
L 67.671875 45.84375 
Q 72.65625 36.078125 76.859375 26.125 
L 70.515625 22.90625 
Q 66.109375 34.234375 61.71875 42.921875 
z
" id="MicrosoftYaHei-26641"/>
      </defs>
      <use xlink:href="#MicrosoftYaHei-20915"/>
      <use x="100" xlink:href="#MicrosoftYaHei-31574"/>
      <use x="200" xlink:href="#MicrosoftYaHei-26641"/>
      <use x="300" xlink:href="#MicrosoftYaHei-27979"/>
      <use x="400" xlink:href="#MicrosoftYaHei-35797"/>
      <use x="500" xlink:href="#MicrosoftYaHei-38598"/>
      <use x="600" xlink:href="#MicrosoftYaHei-20934"/>
      <use x="700" xlink:href="#MicrosoftYaHei-30830"/>
      <use x="800" xlink:href="#MicrosoftYaHei-24230"/>
     </g>
    </g>
   </g>
  </g>
 </g>
 <defs>
  <clipPath id="p60a78df9c2">
   <rect height="266.112" width="357.12" x="57.6" y="41.472"/>
  </clipPath>
 </defs>
</svg>
